<svg version="1.1" xmlns="http://www.w3.org/2000/svg" viewBox="0 0 3403.356905256201 1361.3249106110088" width="3403.356905256201" height="1361.3249106110088" filter="invert(93%) hue-rotate(180deg)">
  <!-- svg-source:excalidraw -->
  
  <defs>
    <style class="style-fonts">
      @font-face {
        font-family: "Virgil";
        src: url("https://excalidraw.com/Virgil.woff2");
      }
      @font-face {
        font-family: "Cascadia";
        src: url("https://excalidraw.com/Cascadia.woff2");
      }
    </style>
  </defs>
  <g stroke-linecap="round" transform="translate(330.49932044858815 569.231020400168) rotate(0 352.9082873377201 44.963503151018614)"><path d="M0.1 -0.19 C252.72 -2.3, 504.72 -1.65, 705.63 -0.05 M-0.04 0.27 C183.33 -2.06, 367.34 -2.31, 705.74 0.11 M704.69 1.26 C704.84 32.44, 705.45 62.13, 706.17 89.35 M706.65 -0.82 C705.51 24.24, 705.8 49.81, 704.99 88.99 M705.48 90.04 C526.54 89.08, 347.24 89.36, -0.09 89.41 M705.74 89.8 C519.84 92.16, 333.99 92.48, -0.19 89.98 M1.75 89.78 C1.33 58.38, -0.17 27.76, -0.93 1.96 M0.58 90.16 C1.25 64.66, -0.27 39.47, 0.95 -0.86" stroke="#aaa" stroke-width="4" fill="none"></path></g><g stroke-linecap="round"><g transform="translate(331.12243151065195 568.8392653459875) rotate(0 -48.53541174127622 92.07460886707065)"><path d="M-0.48 1.3 C-33.83 34.92, -66.19 67.62, -96.92 96 M0.67 -0.56 C-33.18 34.92, -68.23 68.55, -96.54 97.32 M-95.54 96.19 C-95.83 119.62, -97.82 142.79, -97.38 184.35 M-97.62 96.78 C-96.85 120.71, -95.86 143.25, -97.74 184.43 M-96.51 184.47 C-74.93 163.36, -53.21 142.99, -4.67 90.74 M-97.12 184.71 C-76.93 163.31, -54.42 141.18, -3.26 92.03" stroke="#aaa" stroke-width="4" fill="none"></path></g></g><mask></mask><g stroke-linecap="round"><g transform="translate(236.25839663839633 753.7274049031089) rotate(0 398.7156200357216 -46.224172498572244)"><path d="M0.52 -0.22 C264.07 1.11, 527.29 0.64, 705.35 0.44 M-0.22 0.19 C267.98 -1.95, 535.4 -1.78, 705.88 -0.16 M705.07 0.74 C736.33 -31.98, 766.83 -61.44, 797.58 -93.08 M705.65 -0.33 C735.82 -29.23, 765.38 -61.49, 797.65 -93.19" stroke="#aaa" stroke-width="4" fill="none"></path></g></g><mask></mask><g stroke-linecap="round"><g transform="translate(279.81843299831144 624.0152818608403) rotate(0 354.36936365946065 42.71962966286827)"><path d="M-0.55 0.81 C0.87 25.55, -0.32 51.26, 1.11 84.84 M0.47 0.6 C0.39 23.97, 0.82 48.85, -0.41 83.51 M0.3 83.25 C172.41 84.25, 345.6 83.89, 709.29 83.5 M-0.13 83.35 C272.15 82.97, 543.4 83.12, 709.25 83.1" stroke="#aaa" stroke-width="4" fill="none"></path></g></g><mask></mask><g stroke-linecap="round"><g transform="translate(592.8392586221353 572.2670081725021) rotate(0 -40.914416430400934 91.7979313957241)"><path d="M0.81 1.07 C0.08 23.42, -0.24 48.18, 1.59 85.14 M0.6 -0.17 C-0.66 31.56, 0.05 62.18, 0.26 84.77 M0 84.08 C-30.1 120.2, -61.14 155.28, -82.42 183.76 M0.27 86 C-18.98 105.25, -36.74 126.57, -83.42 181.67" stroke="#000000" stroke-width="4" fill="none"></path></g></g><mask></mask><g stroke-linecap="round"><g transform="translate(497.5991490033857 659.8879090217514) rotate(0 92.39225371417294 0.29087125617377296)"><path d="M1.07 -0.48 C67.49 -1.55, 136.33 0.83, 184.95 1.33 M-0.17 -0.19 C45.48 -0.59, 90.03 -0.86, 184.58 0.63" stroke="#000000" stroke-width="4" fill="none"></path></g></g><mask></mask><g stroke-linecap="round"><g transform="translate(457.97922852401643 707.126980140671) rotate(0 91.85936280078789 -0.42639169669431)"><path d="M-0.48 -0.12 C49.01 0.13, 101.2 -1.18, 184.2 -1.12 M-0.19 0.26 C63.92 -0.1, 127.05 -0.26, 183.49 -0.3" stroke="#000000" stroke-width="4" fill="none"></path></g></g><mask></mask><g stroke-linecap="round" transform="translate(502.68160434524634 568.6338282600481) rotate(0 43.99870110191239 46.04788792143799)"><path d="M1.9 0.21 L87.15 -1.07 L87.39 91.88 L-0.8 91.46" stroke="none" stroke-width="0" fill="#fa5252"></path><path d="M-0.12 -0.8 C31.09 1.8, 59.77 1.54, 86.88 0.93 M0.26 0.52 C31.3 0.43, 62.85 0.8, 87.69 0.37 M87.42 -0.54 C86.79 28.25, 89.08 53.61, 87.96 91.44 M87.06 -0.46 C87.86 29.72, 88.18 60.33, 87.79 92.34 M86.72 91.36 C64.12 93.85, 42.59 91.36, -0.36 90.17 M88.13 92.65 C61.62 92.5, 37.01 91.59, 0.46 92.29 M1.96 91.78 C-1.62 67.09, 0.38 42.63, 1.74 0.53 M-0.86 91.74 C-0.07 70.98, 0.04 49.6, 0.14 -0.2" stroke="#000000" stroke-width="4" fill="none"></path></g><g stroke-linecap="round" transform="translate(589.7394709558175 568.7831668356052) rotate(0 48.02604712585088 44.9275101997452)"><path d="M0.21 -0.84 L94.98 -0.6 L95.84 89.06 L-0.63 91.17" stroke="none" stroke-width="0" fill="#228be6"></path><path d="M-0.8 1.11 C35.56 -0.14, 69.28 -1.06, 96.99 1.21 M0.52 -0.41 C27.47 -0.82, 55.05 -0.56, 96.42 0 M95.52 -0.63 C96.84 22.99, 94.58 42.61, 95.39 90.39 M95.59 -0.75 C94.94 32.5, 95.45 65.64, 96.3 89.41 M95.32 88.5 C63.47 88.88, 26.55 88.88, -1.92 89.75 M96.6 89.4 C69.54 90.85, 41.28 90.44, 0.19 89.57 M-0.32 89.02 C0.37 56.43, 0.88 22.43, 0.53 -1.3 M-0.36 90.35 C-0.33 57.97, -0.06 24.99, -0.2 0.95" stroke="#000000" stroke-width="4" fill="none"></path></g><g stroke-linecap="round"><g transform="translate(499.61352579440336 660.57632359348) rotate(0 22.923201787048924 22.933276131539827)" fill-rule="evenodd"><path d="M-0.02 -1.31 L-44.16 45.95 L50.98 44.38 L88.69 -1.88 L0.4 -2.24" stroke="none" stroke-width="0" fill="#fa5252" fill-rule="evenodd"></path><path d="M1.11 1.59 C-12.43 13.37, -25.57 25.18, -43.01 43.88 M-0.41 0.26 C-12.88 13.29, -25.05 25.47, -44.22 43.59 M-44.85 44.85 C-12.56 43.26, 15.74 44.67, 50.78 46.89 M-44.97 43.85 C-24.17 45.09, -3.47 45.48, 49.8 46.15 M48.89 47.41 C61.76 31.89, 73.35 17.43, 90.21 -0.31 M49.79 46.4 C61.13 33.81, 70.79 22.62, 90.02 0.85 M89.47 -0.04 C68.98 -0.05, 47.08 -0.35, 0.37 -0.23 M90.81 0.52 C55.97 -0.1, 20.53 -1.67, 2.62 -1.35 M1.64 -1.55 C1.16 -0.94, 0.9 -0.54, -0.2 0.2 M1.64 -1.36 C1.3 -1.1, 0.99 -0.85, 0.03 -0.07" stroke="#000000" stroke-width="4" fill="none"></path></g></g><mask></mask><g stroke-linecap="round"><g transform="translate(552.644541759747 704.824179510387) rotate(0 24.7560092558669 24.625941404524013)" fill-rule="evenodd"><path d="M-1.31 0.06 L-39.95 47.18 L46.82 47.32 L89.1 0.95 L-0.78 -0.09" stroke="none" stroke-width="0" fill="#fa5252" fill-rule="evenodd"></path><path d="M1.59 -0.2 C-11.11 12.77, -23.77 28.75, -42.01 46.06 M0.26 -0.56 C-12.73 14.69, -26.6 30.15, -42.31 46.61 M-41.05 48.1 C-19 47.36, 6.3 48.61, 49.33 47.28 M-42.05 46.01 C-23.05 47.42, -4.46 47.7, 48.59 48.83 M49.86 48.58 C57.68 37.84, 66.53 27.07, 90.67 1.25 M48.84 49.81 C61.12 34.97, 74.84 19.6, 91.82 1.76 M90.93 3.38 C55.22 2.69, 19.08 -1.23, 1.23 1.89 M91.49 2.83 C72.28 2.34, 51.8 2.68, 0.11 -0.42 M0 0 C0 0, 0 0, 0 0 M0 0 C0 0, 0 0, 0 0" stroke="#000000" stroke-width="4" fill="none"></path></g></g><mask></mask><g stroke-linecap="round"><g transform="translate(589.4401581449647 658.6835637498198) rotate(0 31.714168155558582 23.230976433126813)" fill-rule="evenodd"><path d="M0.06 1.73 L-37.09 46.41 L52.77 45.9 L99.26 -1.82 L-0.09 1.1" stroke="none" stroke-width="0" fill="#228be6" fill-rule="evenodd"></path><path d="M-0.2 1.33 C-10.69 13.61, -18.21 24.72, -38.21 48.13 M-0.56 0.63 C-13.83 17.24, -26.86 33.02, -37.66 47.31 M-36.17 45.96 C-12.67 46.7, 13.1 48.73, 52.72 45.9 M-38.26 47.74 C-14.64 48.23, 8.53 48.61, 54.28 47.14 M54.03 47.14 C66.51 32.57, 78.92 21.33, 99.56 -0.78 M55.26 47.71 C71.46 30.25, 87.09 13.57, 100.07 -0.06 M101.69 -0.58 C73.72 -0.24, 42.13 0.76, 1.89 -1.72 M101.15 -0.25 C74.11 -0.44, 48.36 0.14, -0.42 -0.53 M0 0 C0 0, 0 0, 0 0 M0 0 C0 0, 0 0, 0 0" stroke="#000000" stroke-width="4" fill="none"></path></g></g><mask></mask><g stroke-linecap="round"><g transform="translate(458.66902812455646 705.2073839231517) rotate(0 23.033506195608766 23.86811184061915)" fill-rule="evenodd"><path d="M1.73 0.74 L-47.07 45.52 L48.39 47.12 L91.83 0.11 L1.1 1.29" stroke="none" stroke-width="0" fill="#228be6" fill-rule="evenodd"></path><path d="M1.33 -1.12 C-15.01 17.92, -32.59 33.1, -45.36 48.19 M0.63 -0.3 C-11.39 11.95, -24.28 24.34, -46.17 46.87 M-47.52 47.1 C-20.74 47.21, 7.05 45.35, 48.39 47.46 M-45.74 46.93 C-23.99 47.39, -1.99 48, 49.63 48.02 M49.63 48.03 C57.73 37.17, 69.18 25.11, 92.87 1.3 M50.19 48.85 C60.85 35.45, 72.29 23, 93.59 0.04 M93.07 1.94 C69.24 -0.62, 46.04 2.52, -1.72 -0.71 M93.39 0.34 C60 1.65, 27.9 0.21, -0.53 -0.3 M0 0 C0 0, 0 0, 0 0 M0 0 C0 0, 0 0, 0 0" stroke="#000000" stroke-width="4" fill="none"></path></g></g><mask></mask><g stroke-linecap="round"><g transform="translate(409.8368251108286 752.6859571261979) rotate(0 43.508317776347326 -89.33759442176557)"><path d="M-1.12 0.93 C1.29 -34.6, -0.29 -68, 1.05 -91.13 M-0.61 -89.57 C29.41 -121.03, 58.67 -149.26, 88.13 -179.61" stroke="#000000" stroke-width="4.5" fill="none" stroke-dasharray="8 12"></path></g></g><mask></mask><g stroke-linecap="round"><g transform="translate(456.65284764397074 704.5946826124889) rotate(0 0.057485105469822884 -43.704122837957556)"><path d="M0.93 1.21 C-0.93 -26.25, -0.07 -50.69, -0.82 -88.61" stroke="#000000" stroke-width="4.5" fill="none" stroke-dasharray="8 12"></path></g></g><mask></mask><g stroke-linecap="round"><g transform="translate(502.9549880743825 534.7596458742462) rotate(0 136.93105073066187 -0.24796411487693604)"><path d="M0.94 -0.26 C99.98 -0.58, 201.37 -1.63, 273.86 -0.88 M0 -0.49 C99.43 -1.01, 198.38 -1.04, 273.7 0.65" stroke="#e67700" stroke-width="4" fill="none"></path></g><g transform="translate(502.9549880743825 534.7596458742462) rotate(0 136.93105073066187 -0.24796411487693604)"><path d="M2.25 0.62 L16.06 -8.45 L16.35 4.04 L1.8 -0.51" stroke="none" stroke-width="0" fill="#e67700" fill-rule="evenodd"></path><path d="M1.84 -0.51 C5.67 -2.27, 11.71 -5.63, 14.9 -7.5 M0.94 -0.73 C6.02 -2.85, 10.61 -5.19, 14.74 -6.03 M14.84 -5.82 C13.46 -5.08, 13.94 -2.07, 14.09 5.48 M14.23 -6.29 C14.43 -3.07, 14.28 0.89, 15.15 5.91 M14.48 5.79 C10.19 4.4, 8.1 1.84, 2.19 1.05 M14.34 6.66 C10.2 4.94, 6.44 2.06, 0.92 0.17 M0.94 -0.26 C0.94 -0.26, 0.94 -0.26, 0.94 -0.26 M0.94 -0.26 C0.94 -0.26, 0.94 -0.26, 0.94 -0.26" stroke="#e67700" stroke-width="4" fill="none"></path></g><g transform="translate(502.9549880743825 534.7596458742462) rotate(0 136.93105073066187 -0.24796411487693604)"><path d="M275.02 1.52 L261.57 5 L262 -7.87 L274.57 0.39" stroke="none" stroke-width="0" fill="#e67700" fill-rule="evenodd"></path><path d="M274.61 0.4 C268.37 3.36, 264.42 4.6, 260.41 5.94 M273.7 0.18 C268.85 2.71, 263.54 4.92, 260.25 7.41 M260.36 7.63 C259.01 2.83, 259.51 0.3, 259.74 -6.43 M259.74 7.16 C260.03 2.39, 259.93 -1.63, 260.79 -6.01 M260.12 -6.12 C263.08 -3.82, 268.26 -2.93, 274.96 1.96 M259.99 -5.26 C263.84 -3.27, 268.01 -2.41, 273.69 1.08 M273.7 0.65 C273.7 0.65, 273.7 0.65, 273.7 0.65 M273.7 0.65 C273.7 0.65, 273.7 0.65, 273.7 0.65" stroke="#e67700" stroke-width="4" fill="none"></path></g></g><mask></mask><g transform="translate(431.65452463096244 445.18746549691605) rotate(0 209 31)"><text x="0" y="44" font-family="Virgil, Segoe UI Emoji" font-size="50px" fill="#e67700" text-anchor="start" style="white-space: pre;" direction="ltr">kernel_width = 3</text></g><g stroke-linecap="round"><g transform="translate(213.23455715298041 631.7382408594606) rotate(0 43.50391710954318 -43.099640053087455)"><path d="M-0.38 0.53 C30.39 -30.53, 59.72 -60.7, 87.39 -86.73 M0.18 -0.29 C28.77 -28.81, 58.39 -56.7, 85.31 -86.14" stroke="#862e9c" stroke-width="4" fill="none"></path></g><g transform="translate(213.23455715298041 631.7382408594606) rotate(0 43.50391710954318 -43.099640053087455)"><path d="M1.18 -1.26 L6.5 -15.56 L14.57 -4.9 L-0.87 2.25" stroke="none" stroke-width="0" fill="#862e9c" fill-rule="evenodd"></path><path d="M-0.66 0.93 C2.09 -4.97, 3.46 -10.09, 5.66 -14.04 M-0.25 0.31 C1.14 -4.43, 3.29 -8.33, 4.1 -13.6 M3.66 -14.77 C6.55 -12.2, 9.07 -9.41, 13.89 -4.91 M4.64 -13.99 C7.36 -11.16, 11.09 -7.95, 13.5 -4.76 M12.97 -4.45 C11.66 -4.29, 9.21 -1.24, -0.49 1.22 M13.35 -3.91 C9.07 -3.19, 4.68 -0.79, -0.2 1.18 M-0.38 0.53 C-0.38 0.53, -0.38 0.53, -0.38 0.53 M-0.38 0.53 C-0.38 0.53, -0.38 0.53, -0.38 0.53" stroke="#862e9c" stroke-width="4" fill="none"></path></g><g transform="translate(213.23455715298041 631.7382408594606) rotate(0 43.50391710954318 -43.099640053087455)"><path d="M86.86 -87.93 L82.32 -73.9 L72.21 -80.91 L84.81 -84.42" stroke="none" stroke-width="0" fill="#862e9c" fill-rule="evenodd"></path><path d="M85.02 -85.74 C84.52 -81.83, 82.47 -77.13, 81.48 -72.38 M85.44 -86.36 C83.5 -81.61, 82.32 -75.96, 79.92 -71.94 M79.48 -73.11 C77.47 -75.14, 75.13 -77.07, 71.53 -80.92 M80.46 -72.33 C77.36 -75.13, 75.2 -77.65, 71.14 -80.77 M70.62 -80.46 C75.02 -82.43, 78.29 -81.56, 85.2 -85.45 M71 -79.92 C75.7 -82.84, 80.26 -83.84, 85.48 -85.49 M85.31 -86.14 C85.31 -86.14, 85.31 -86.14, 85.31 -86.14 M85.31 -86.14 C85.31 -86.14, 85.31 -86.14, 85.31 -86.14" stroke="#862e9c" stroke-width="4" fill="none"></path></g></g><mask></mask><g transform="translate(10 480.9020049661128) rotate(0 137 62.5)"><text x="0" y="43.5" font-family="Virgil, Segoe UI Emoji" font-size="50px" fill="#862e9c" text-anchor="start" style="white-space: pre;" direction="ltr">in_channels</text><text x="0" y="106" font-family="Virgil, Segoe UI Emoji" font-size="50px" fill="#862e9c" text-anchor="start" style="white-space: pre;" direction="ltr">= 2</text></g><g stroke-linecap="round"><g transform="translate(238.6025792982855 795.9628828418851) rotate(0 350.11149576735045 -0.07293030657760369)"><path d="M0.42 -0.33 C198.53 -1.19, 397.15 -0.98, 700.33 0 M-0.11 -0.13 C166.24 1.14, 331.89 0.8, 699.9 0.11" stroke="#000000" stroke-width="4" fill="none"></path></g><g transform="translate(238.6025792982855 795.9628828418851) rotate(0 350.11149576735045 -0.07293030657760369)"><path d="M2.21 -2.31 L14.87 -6.93 L13.53 7.72 L-0.27 0.88" stroke="none" stroke-width="0" fill="#000000" fill-rule="evenodd"></path><path d="M1.21 -0.94 C4.67 -3.01, 9.08 -4.42, 14.57 -6.68 M0.22 -0.56 C3.87 -1.17, 6.25 -3.32, 13.76 -6.48 M13.42 -7.63 C13.44 -2.57, 14.1 2.35, 14.33 5.44 M13.78 -7.11 C14.59 -2.25, 13.8 2.3, 13.41 5.97 M14.85 5.32 C11.43 5.53, 6.19 3.11, 0.71 -0.76 M13.9 5.69 C8.8 4.13, 3.75 1.92, 0.62 -0.82 M0.42 -0.33 C0.42 -0.33, 0.42 -0.33, 0.42 -0.33 M0.42 -0.33 C0.42 -0.33, 0.42 -0.33, 0.42 -0.33" stroke="#000000" stroke-width="4" fill="none"></path></g><g transform="translate(238.6025792982855 795.9628828418851) rotate(0 350.11149576735045 -0.07293030657760369)"><path d="M701.69 -1.87 L687.18 6.22 L685.8 -4.49 L699.22 1.32" stroke="none" stroke-width="0" fill="#000000" fill-rule="evenodd"></path><path d="M700.69 -0.51 C696.43 1.1, 693.14 3.29, 686.88 6.47 M699.7 -0.13 C696.93 2.2, 692.85 3.07, 686.07 6.67 M685.73 5.52 C685.95 1.28, 686.59 -3.08, 686.61 -6.77 M686.09 6.04 C686.91 1.81, 686.11 -2.73, 685.69 -6.24 M687.12 -6.89 C691.39 -3.12, 693.9 -1.94, 700.19 -0.33 M686.18 -6.52 C691.49 -3.48, 696.91 -0.83, 700.1 -0.38 M699.9 0.11 C699.9 0.11, 699.9 0.11, 699.9 0.11 M699.9 0.11 C699.9 0.11, 699.9 0.11, 699.9 0.11" stroke="#000000" stroke-width="4" fill="none"></path></g></g><mask></mask><g transform="translate(541.5531498056753 817.1308318223782) rotate(0 62.5 31)"><text x="0" y="44" font-family="Virgil, Segoe UI Emoji" font-size="50px" fill="#000000" text-anchor="start" style="white-space: pre;" direction="ltr">width</text></g><g stroke-linecap="round"><g transform="translate(1073.775626357593 675.988463493178) rotate(0 130.82552376419463 -189.8699181177311)"><path d="M0.24 -0.52 C85.19 -123.64, 170.49 -247.21, 261.41 -379.22" stroke="#000000" stroke-width="4.5" fill="none" stroke-dasharray="8 12"></path></g><g transform="translate(1073.775626357593 675.988463493178) rotate(0 130.82552376419463 -189.8699181177311)"><path d="M261.67 -378.11 L258.01 -362.75 L250.23 -371.77 L262.33 -378.83" stroke="none" stroke-width="0" fill="#000000" fill-rule="evenodd"></path><path d="M261.8 -380.06 C261.62 -374.85, 260.42 -369.57, 257.97 -364.16 M259.31 -363.37 C255.07 -366.43, 252.85 -368.02, 249.32 -372.67 M247.92 -372.26 C251.4 -373.4, 254.21 -375.32, 262.29 -379.38 M261.41 -379.22 C261.41 -379.22, 261.41 -379.22, 261.41 -379.22" stroke="#000000" stroke-width="4.5" fill="none"></path></g></g><mask></mask><g stroke-linecap="round"><g transform="translate(1073.7735889903283 673.4598123387416) rotate(0 127.78763906334703 0.09571892199133458)"><path d="M-0.91 1.02 C89.8 0.06, 180.58 -1.55, 256.48 -0.46" stroke="#000000" stroke-width="4.5" fill="none" stroke-dasharray="8 12"></path></g><g transform="translate(1073.7735889903283 673.4598123387416) rotate(0 127.78763906334703 0.09571892199133458)"><path d="M257.59 -1.37 L244.53 7.56 L242.77 -5.94 L256.87 -1.04" stroke="none" stroke-width="0" fill="#000000" fill-rule="evenodd"></path><path d="M255.64 0.48 C251.2 2.34, 246.85 3.05, 243.12 5.38 M243.91 4.77 C242.89 1.93, 243.27 -0.28, 241.86 -8.06 M242.28 -6.65 C246 -4.83, 249.09 -2.69, 256.32 -1.42 M256.48 -0.46 C256.48 -0.46, 256.48 -0.46, 256.48 -0.46" stroke="#000000" stroke-width="4.5" fill="none"></path></g></g><mask></mask><g stroke-linecap="round"><g transform="translate(1075.1486069292787 675.3578640929263) rotate(0 132.0548612018213 185.89955684881176)"><path d="M0.6 -0.29 C69.14 97.16, 136.53 193.78, 263.51 372.09" stroke="#000000" stroke-width="4.5" fill="none" stroke-dasharray="8 12"></path></g><g transform="translate(1075.1486069292787 675.3578640929263) rotate(0 132.0548612018213 185.89955684881176)"><path d="M262.61 373.76 L252.23 364.52 L261.74 357.72 L262.93 373.78" stroke="none" stroke-width="0" fill="#000000" fill-rule="evenodd"></path><path d="M264.46 371.63 C260.67 370.09, 255.8 368.43, 250.04 364.27 M249.44 364.65 C252.81 362.95, 256.84 359.59, 259.62 356.74 M261.03 357.02 C261.73 360, 262.85 363.83, 262.55 371.54 M263.51 372.09 C263.51 372.09, 263.51 372.09, 263.51 372.09" stroke="#000000" stroke-width="4.5" fill="none"></path></g></g><mask></mask><g stroke-linecap="round"><g transform="translate(1700.0064336794592 163.4242013742287) rotate(0 -41.696356852769725 90.65926557944312)"><path d="M-0.61 0.74 C-0.48 26.57, -0.13 55.07, -0.54 84.7 M-0.02 -0.33 C0.98 28.96, -0.12 55.65, -0.46 84.59 M-0.42 85.82 C-23.16 112.1, -44.35 135.12, -83.78 180.74 M-0.18 84.37 C-32.84 122.92, -65.89 161.2, -82.5 181.65" stroke="#000000" stroke-width="4" fill="none"></path></g></g><mask></mask><g stroke-linecap="round"><g transform="translate(1604.7663240607098 251.045102223478) rotate(0 92.09254740413917 0.07685944268042633)"><path d="M0.74 0 C43.87 0.91, 89.66 0.03, 184.51 0.63 M-0.33 0.27 C71.61 -0.8, 140.95 -0.43, 184.4 -0.37" stroke="#000000" stroke-width="4" fill="none"></path></g></g><mask></mask><g stroke-linecap="round"><g transform="translate(1565.1464035813406 298.2841733423976) rotate(0 91.74556406326195 0.204600431035022)"><path d="M0 -1.25 C66.75 -1.26, 132.26 -1.31, 183.49 1.66 M0.27 0.66 C39.09 -0.34, 79.38 -0.15, 182.49 -0.43" stroke="#000000" stroke-width="4" fill="none"></path></g></g><mask></mask><g stroke-linecap="round" transform="translate(1609.8487794025705 161.71817310745303) rotate(0 43.99870110191239 44.13310864378478)"><path d="M-0.34 0.46 L88.63 -1.19 L87.98 86.96 L0.06 90" stroke="none" stroke-width="0" fill="#fa5252"></path><path d="M-1.25 0.35 C23.16 -0.53, 46.83 0.63, 89.66 -1.63 M0.66 -0.83 C25.3 -0.7, 51.72 -0.6, 87.57 0.15 M89.17 -0.22 C86.93 23.91, 86.86 51.14, 87.64 87.63 M87.84 -0.49 C87.28 25.43, 86.7 50.6, 88.87 88.19 M89.69 87.34 C59.49 87.69, 26.22 87.97, 1.16 88.73 M88.61 89.21 C53.09 87.34, 20.39 88.22, 0.61 89.06 M0.21 87.42 C-0.89 59.92, -0.04 31.99, -0.63 1.31 M0.9 87.28 C-0.25 57.79, -0.93 28.43, -0.34 0.6" stroke="#000000" stroke-width="4" fill="none"></path></g><g stroke-linecap="round" transform="translate(1697.233477958005 161.07062213122083) rotate(0 47.570463944943015 44.65454078854429)"><path d="M0.46 0.63 L93.95 -0.02 L93.83 89.37 L1.73 90.05" stroke="none" stroke-width="0" fill="#228be6"></path><path d="M0.35 -0.58 C31.54 -0.04, 64.79 2.26, 93.51 -0.04 M-0.83 -0.94 C24.95 -1.38, 50.46 -1.06, 95.29 -0.21 M94.92 -1.28 C94.02 27.62, 96.6 57.59, 94.5 88.95 M94.66 0.13 C95.64 17.75, 95.93 37.27, 95.07 89.77 M94.21 91.27 C64.44 89.28, 34.35 91.27, 0.46 91.05 M96.09 88.45 C63.71 90.4, 33.51 90.51, 0.79 89.45 M-0.84 88.24 C-1.45 64.08, -1.65 38.64, 1.31 0.88 M-0.99 89.74 C0.67 55.33, 1.66 21.49, 0.6 -0.17" stroke="#000000" stroke-width="4" fill="none"></path></g><g stroke-linecap="round"><g transform="translate(1659.6878260915155 296.87063080414976) rotate(0 24.998688580459145 23.85406122173734)" fill-rule="evenodd"><path d="M-1.96 -0.5 L-39.75 46.82 L49.68 46.29 L90.99 0.48 L0.25 -1.29" stroke="none" stroke-width="0" fill="#fa5252" fill-rule="evenodd"></path><path d="M-0.58 -0.54 C-13.38 14.37, -23.55 25.76, -41.59 44.89 M-0.94 -0.46 C-14.02 14.17, -27.28 29.56, -41.77 45.79 M-42.84 44.82 C-19.94 48.14, 4 46.29, 47.77 46.13 M-41.43 46.1 C-15.59 47.56, 12.17 47.38, 48.59 48.24 M50.09 47.73 C58.54 35.54, 72.18 23.38, 92.83 1.86 M47.27 47.69 C58.44 37.19, 68.65 26.48, 91.24 1.13 M90.03 0.73 C54.88 -0.37, 18.45 1.21, 0.88 1.55 M91.53 1.2 C71.65 1.01, 52.36 0.47, -0.17 0.23 M0 0 C0 0, 0 0, 0 0 M0 0 C0 0, 0 0, 0 0" stroke="#000000" stroke-width="4" fill="none"></path></g></g><mask></mask><g stroke-linecap="round"><g transform="translate(1696.6073332022888 249.99930094002218) rotate(0 29.613173290844202 23.43882061559682)" fill-rule="evenodd"><path d="M-0.5 1.8 L-34.19 49.94 L52.47 46.41 L94.03 -0.5 L-1.29 1.72" stroke="none" stroke-width="0" fill="#228be6" fill-rule="evenodd"></path><path d="M-0.54 -0.63 C-7.7 13.04, -18.38 22.82, -36.11 48.92 M-0.46 -0.75 C-13.76 16.97, -26.24 34.92, -35.21 47.95 M-36.19 47.03 C-1.45 47.93, 28.21 47.25, 52.3 46.4 M-34.91 47.94 C-9.08 48.61, 15.55 47.67, 54.42 46.22 M53.91 45.67 C70.05 29.08, 86.2 11.48, 95.42 -2.05 M53.87 47.01 C69.01 30.38, 83.98 12.82, 94.68 0.21 M94.28 -0.96 C64.62 -1.66, 37.26 0.09, 1.55 -1.79 M94.76 -0.99 C58.77 -0.39, 21.54 0.07, 0.23 0.32 M0 0 C0 0, 0 0, 0 0 M0 0 C0 0, 0 0, 0 0" stroke="#000000" stroke-width="4" fill="none"></path></g></g><mask></mask><g stroke-linecap="round"><g transform="translate(1565.8362031818806 296.36457712487834) rotate(0 24.408893140293856 23.906648917407686)" fill-rule="evenodd"><path d="M1.8 1.27 L-44.34 45.38 L50.16 47.53 L95.35 -1.92 L1.72 1.73" stroke="none" stroke-width="0" fill="#228be6" fill-rule="evenodd"></path><path d="M-0.63 0.63 C-13.05 13.21, -29.32 29.16, -45.35 48.47 M-0.75 -0.37 C-10.82 10.16, -20.55 20.48, -46.33 47.72 M-47.24 48.99 C-18.45 47.21, 9.36 46.29, 50.16 48.08 M-46.34 47.97 C-20.83 46.85, 2.93 47.43, 49.98 49.24 M49.43 48.35 C62.31 36.49, 74.27 24.13, 93.81 0.61 M50.77 48.91 C68.99 30, 86.21 9.67, 96.06 -0.52 M94.89 -1.42 C69.95 0.56, 46.94 0.96, -1.79 1.79 M94.86 0.23 C75.66 -0.02, 56.72 -0.26, 0.32 -0.59 M0 0 C0 0, 0 0, 0 0 M0 0 C0 0, 0 0, 0 0" stroke="#000000" stroke-width="4" fill="none"></path></g></g><mask></mask><g stroke-linecap="round"><g transform="translate(1563.3370361674083 293.48671271589467) rotate(0 23.94776977507425 -65.76694313890265)" fill-rule="evenodd"><path d="M1.27 1.55 L-1.76 -86.94 L46.04 -133.76 L45.88 -41.07 L2.3 3.53" stroke="none" stroke-width="0" fill="#fa5252" fill-rule="evenodd"></path><path d="M0.63 1.66 C-1.4 -23.59, -0.43 -46.56, 1.33 -88.5 M-0.37 -0.43 C0.55 -18.12, 0.65 -36.26, 0.58 -86.95 M1.85 -87.2 C10.6 -98.01, 20.38 -108.89, 46.59 -134.98 M0.84 -85.96 C14.34 -100.93, 29.29 -116.44, 47.75 -134.47 M46.85 -132.85 C47.32 -95.96, 47.5 -62.69, 48.4 -40.91 M47.42 -133.39 C47.42 -114.33, 46.49 -93.98, 47.27 -43.22 M46.37 -43.43 C36.85 -30.57, 25.61 -21.84, 2.36 1.44 M48.03 -43.14 C31.72 -27.22, 15.36 -10.88, -0.02 3.41 M0.7 3.22 C0.15 2.3, 0.08 1.69, -0.02 0.19 M0.46 3.45 C0.21 2.13, 0.16 0.75, -0.04 0.16" stroke="#000000" stroke-width="4" fill="none"></path></g></g><mask></mask><g stroke-linecap="round"><g transform="translate(1520.0043288398015 343.1977948397615) rotate(0 22.00200081083034 -68.84863720198425)" fill-rule="evenodd"><path d="M1.55 -1.76 L-1.84 -92.69 L44.31 -140.11 L47.24 -46.73 L0.11 1.11" stroke="none" stroke-width="0" fill="#228be6" fill-rule="evenodd"></path><path d="M1.66 -1.63 C-0.22 -25.74, -0.12 -48.85, -3.4 -93.71 M-0.43 0.15 C0.04 -23.07, -0.63 -46.03, -1.84 -92.47 M-2.1 -92.47 C10.28 -106.56, 22.6 -117.31, 43.09 -138.56 M-0.86 -91.91 C15.2 -108.71, 30.71 -124.74, 43.6 -137.84 M45.22 -138.36 C45.83 -112.63, 43.21 -86.27, 47.4 -50.18 M44.68 -138.03 C45.04 -115.15, 46.23 -90.96, 45.09 -49 M44.88 -47.15 C34.05 -34.01, 19.11 -20.69, -1.98 0.86 M45.17 -47.86 C32.15 -33.91, 19.55 -20.82, -0.01 -0.65 M0 0 C0 0, 0 0, 0 0 M0 0 C0 0, 0 0, 0 0" stroke="#000000" stroke-width="4" fill="none"></path></g></g><mask></mask><g stroke-linecap="round" transform="translate(687.09627417701 569.1178805042291) rotate(0 45.64803244121168 44.654540788544296)"><path d="M1.73 0.74 L90.11 -1.62 L89.42 88.04 L-0.78 89.21" stroke="none" stroke-width="0" fill="#228be6"></path><path d="M-1.63 -0.04 C23.84 -0.23, 50.33 -2.42, 89.42 -0.92 M0.15 -0.21 C20.81 -0.05, 41.71 0.28, 90.66 -0.37 M90.66 -0.36 C90.2 20.64, 91.82 40.52, 91.56 90.41 M91.22 0.46 C92.23 22.47, 92.89 45.05, 92.28 89.15 M91.76 91.05 C68.26 88.54, 45.4 91.73, -1.72 88.59 M92.09 89.45 C59.15 90.82, 27.5 89.45, -0.53 89.01 M1.31 90.19 C1.91 61.68, 2.15 35.64, 0.86 -0.25 M0.6 89.14 C-0.54 65.03, -1.36 40.12, -0.65 0.03" stroke="#000000" stroke-width="4" fill="none"></path></g><g stroke-linecap="round"><g transform="translate(645.8794431847309 705.0885621316202) rotate(0 20.68710962264231 24.408340996210313)" fill-rule="evenodd"><path d="M-0.1 -0.85 L-45.56 47.53 L46.11 50.42 L87.33 2.44 L-1.22 1.95" stroke="none" stroke-width="0" fill="#fa5252" fill-rule="evenodd"></path><path d="M-0.04 -0.66 C-14.25 17.14, -31.63 30.12, -46.73 47.32 M-0.21 0.24 C-12.71 13.5, -24.43 25.13, -46.17 48.14 M-46.17 46.89 C-10.49 48.75, 24.06 49.27, 45.49 47.79 M-45.34 49.01 C-11.5 49.68, 22.92 49.77, 44.23 48.28 M46.13 49.23 C55.57 35.72, 71.52 18.66, 86.51 2.32 M44.53 48.5 C60.14 31.78, 73.86 14.45, 86.92 1.22 M88.1 2.88 C62.74 3.35, 39.85 2.07, -0.25 -0.49 M87.05 1.56 C53.87 0.75, 19.86 0.17, 0.03 0.87 M0 0 C0 0, 0 0, 0 0 M0 0 C0 0, 0 0, 0 0" stroke="#000000" stroke-width="4" fill="none"></path></g></g><mask></mask><g stroke-linecap="round"><g transform="translate(686.4798975796211 658.3138127503782) rotate(0 24.059008360678945 23.81957751104568)" fill-rule="evenodd"><path d="M-0.85 0.25 L-44.35 50.43 L48.93 46.81 L92.66 -1.42 L1.95 1.65" stroke="none" stroke-width="0" fill="#228be6" fill-rule="evenodd"></path><path d="M-0.66 0.53 C-15.57 16.99, -35.28 36.39, -44.56 47.97 M0.24 -0.44 C-10.43 12.34, -22.74 24.62, -43.74 49.63 M-44.99 48.6 C-17.92 47.33, 8.09 48.84, 46.29 48.37 M-42.87 48.42 C-7.24 47.05, 27.87 46.57, 46.78 46.68 M47.73 45.4 C64.2 31.42, 77.12 12.03, 92.55 0.84 M47 47.65 C62.96 29.27, 78.35 12.44, 91.45 -0.6 M93.11 -1.99 C68.78 -1.73, 43.29 0.05, -0.49 1.72 M91.79 0.11 C66.63 -0.32, 42.24 -0.22, 0.87 0.37 M0 0 C0 0, 0 0, 0 0 M0 0 C0 0, 0 0, 0 0" stroke="#000000" stroke-width="4" fill="none"></path></g></g><mask></mask><g stroke-linecap="round" transform="translate(1791.2522064770712 159.94342522875343) rotate(0 45.64803244121168 44.65454078854429)"><path d="M-1.62 -1.88 L90.03 -0.78 L91.2 90.41 L1.29 89.57" stroke="none" stroke-width="0" fill="#228be6"></path><path d="M0.53 1.33 C18.27 -1.58, 38.94 -1.2, 90.56 -0.85 M-0.44 0.58 C28.63 -0.86, 57.1 -0.9, 92.22 -0.18 M91.19 -0.31 C90.16 24.2, 92.24 46.97, 92.97 91.06 M91.01 0.85 C91.25 27.11, 91.55 51.84, 91.27 89.89 M90 90.54 C63.69 87.84, 31.59 90.55, 1.05 90.54 M92.25 89.41 C56.28 88.59, 21.81 89.02, -0.4 88.99 M-1.79 91.1 C-2.37 57.51, -0.64 23.5, 1.72 -0.68 M0.32 88.71 C0.14 56.47, 0.18 25.8, 0.37 -0.59" stroke="#000000" stroke-width="4" fill="none"></path></g><g stroke-linecap="round"><g transform="translate(1749.582856130608 296.2080864178075) rotate(0 24.565781228442575 23.78655433069875)" fill-rule="evenodd"><path d="M-1.29 1.72 L-38.79 49.47 L47.05 45.62 L90.66 1.55 L-0.4 0.11" stroke="none" stroke-width="0" fill="#fa5252" fill-rule="evenodd"></path><path d="M1.33 -1.66 C-14.12 13.9, -25.82 28.81, -41.37 49.66 M0.58 -0.11 C-11.83 13.24, -23.18 28.31, -40.7 49.04 M-40.83 48.39 C-15.87 49.8, 7.34 49.65, 47.69 46.69 M-39.67 48.9 C-9.61 48.58, 18.93 47.84, 46.52 47.06 M47.18 48.72 C60.65 28.23, 79.92 11.83, 89.94 1.47 M46.05 46.41 C58.94 31.37, 72.81 16.53, 88.39 0.55 M90.5 -2.08 C59.07 -1.11, 27.22 0.9, -0.68 1.21 M88.12 -0.11 C62.96 0.23, 39.38 0.61, -0.59 -0.81 M0 0 C0 0, 0 0, 0 0 M0 0 C0 0, 0 0, 0 0" stroke="#000000" stroke-width="4" fill="none"></path></g></g><mask></mask><g stroke-linecap="round"><g transform="translate(1791.5177465292372 248.5644631364139) rotate(0 24.750480178819828 23.725129094377138)" fill-rule="evenodd"><path d="M1.72 1.73 L-41.33 48.46 L44.02 50.32 L91.99 -0.79 L0.11 -0.29" stroke="none" stroke-width="0" fill="#228be6" fill-rule="evenodd"></path><path d="M-1.66 -1.88 C-11.87 11.43, -22.75 24.72, -41.15 46.93 M-0.11 -0.64 C-14.02 14.93, -26.17 30.78, -41.76 47.17 M-42.41 47.61 C-22.68 46.78, -4.44 49.65, 45.09 49.3 M-41.91 48.33 C-13.93 46.52, 13.88 47.84, 45.47 49.24 M47.13 46.65 C59.57 33.16, 76.06 17.46, 91.91 -0.11 M44.82 47.84 C57.11 34.56, 69.64 20.68, 90.99 0.05 M88.35 0.47 C55.95 0.07, 23.81 0.03, 1.21 -0.34 M90.33 -1.05 C61.17 0.06, 32.31 -1.27, -0.81 -0.94 M0 0 C0 0, 0 0, 0 0 M0 0 C0 0, 0 0, 0 0" stroke="#000000" stroke-width="4" fill="none"></path></g></g><mask></mask><g stroke-linecap="round"><g transform="translate(1610.821509819977 250.11534759536642) rotate(0 20.075971906922916 23.81300805745491)" fill-rule="evenodd"><path d="M1.73 0.11 L-45.72 46.04 L50.83 49.45 L86.14 -0.67 L-0.29 1.93" stroke="none" stroke-width="0" fill="#fa5252" fill-rule="evenodd"></path><path d="M-1.88 -0.92 C-16.48 14.32, -31.14 30.79, -47.25 47.75 M-0.64 -0.37 C-12.39 12.97, -23.88 23.82, -47.01 46.3 M-46.57 48.36 C-19.53 49.56, 11.32 47.89, 49.81 48.18 M-45.85 47.1 C-21.3 47.83, 5.64 48.23, 49.75 48.06 M47.16 47.08 C58.43 37.07, 67.51 26.19, 86.82 -1.17 M48.35 47.49 C63.61 28.36, 78.28 10.22, 86.98 0 M87.4 -1.03 C67.82 0.25, 49.4 -0.1, -0.34 0.46 M85.88 -0.75 C58.71 -0.16, 28.56 -1.08, -0.94 -0.63 M0 0 C0 0, 0 0, 0 0 M0 0 C0 0, 0 0, 0 0" stroke="#000000" stroke-width="4" fill="none"></path></g></g><mask></mask><g stroke-linecap="round"><g transform="translate(1701.792462688305 567.5309807318558) rotate(0 -40.84026148065388 90.0127061482255)"><path d="M-0.92 -1.5 C-1.44 30.42, -0.41 62.12, 0.49 84.45 M-0.37 -0.68 C0.83 30.41, -0.41 61, -0.96 85.28 M1.1 84.43 C-22.44 114.74, -47.91 141.47, -82.66 181.52 M-0.16 84.92 C-32.43 123.97, -64.14 161.5, -82.78 181.45" stroke="#000000" stroke-width="4" fill="none"></path></g></g><mask></mask><g stroke-linecap="round"><g transform="translate(1606.5523530695555 655.1518815811053) rotate(0 91.79908148527784 0.2426617444636463)"><path d="M-1.5 -0.74 C39.3 1.15, 79.88 1.34, 184.27 1.17 M-0.68 0.93 C53.36 0.36, 106.91 -0.28, 185.09 -0.15" stroke="#000000" stroke-width="4" fill="none"></path></g></g><mask></mask><g stroke-linecap="round"><g transform="translate(1566.9324325901862 702.3909527000249) rotate(0 91.64764319471618 -0.04620947641302564)"><path d="M-0.74 -0.85 C38 0.95, 75.91 0.49, 184.03 -0.22 M0.93 -0.18 C42.83 1.06, 85.34 1.19, 182.71 -0.49" stroke="#000000" stroke-width="4" fill="none"></path></g></g><mask></mask><g stroke-linecap="round" transform="translate(1611.634808411416 564.4067127956625) rotate(0 43.99870110191239 44.84222847849364)"><path d="M0.26 -1.52 L86.75 0.26 L86.26 89.16 L0.13 87.72" stroke="none" stroke-width="0" fill="#fa5252"></path><path d="M-0.85 0.29 C21.91 0.81, 43.78 1.49, 87.78 -1.28 M-0.18 -0.32 C23 -1.78, 46.3 -0.97, 87.51 0.13 M89.75 -0.15 C88.52 32.23, 87.01 65.39, 87.07 91.65 M88.58 0.23 C88.49 25.73, 86.97 51.55, 88.94 88.83 M89.22 91.26 C65.03 89.75, 43.39 90.36, -0.84 88.62 M87.68 90.34 C64.69 90.11, 39.61 90.23, -0.99 90.12 M-0.68 90.89 C-0.12 64.38, 0.85 36.96, -0.02 -1.31 M-0.59 88.87 C-1.71 61.88, -1.17 35.3, 0.55 0.64" stroke="#000000" stroke-width="4" fill="none"></path></g><g stroke-linecap="round" transform="translate(1699.0195069668512 564.2318903421218) rotate(0 47.570463944943015 45.12729636190747)"><path d="M-1.52 -1.25 L95.4 -1.74 L94.62 90.39 L-1.96 89.75" stroke="none" stroke-width="0" fill="#fa5252"></path><path d="M0.29 -0.42 C21.92 -0.48, 44.03 0.19, 93.86 -0.73 M-0.32 -0.18 C21.14 0.12, 44.05 -0.31, 95.27 0.55 M94.99 0.93 C96.28 22.42, 97.59 45.07, 97.1 89.93 M95.37 0.87 C95.39 22.65, 95.74 47.54, 94.28 89.9 M96.72 90.54 C61.45 92.74, 28.76 89.99, -1.07 89.65 M95.8 90.69 C68.39 89.06, 40.98 88.96, 0.43 90.13 M1.21 89.91 C-0.31 66.03, -1.97 40.53, -1.31 0.06 M-0.81 89.32 C-0.97 54.97, -0.38 21.01, 0.64 0.13" stroke="#000000" stroke-width="4" fill="none"></path></g><g stroke-linecap="round"><g transform="translate(1661.473855100361 700.977410161777) rotate(0 24.339603398451743 23.932845330364927)" fill-rule="evenodd"><path d="M-0.4 0.11 L-41.85 48.42 L48.44 46.31 L90.96 1.84 L-0.65 -0.67" stroke="none" stroke-width="0" fill="#fa5252" fill-rule="evenodd"></path><path d="M-0.42 0.49 C-12.02 13.47, -22.29 23.26, -42.29 45.14 M-0.18 -0.96 C-16.46 17.97, -33.21 36.51, -41.01 46.04 M-40.63 46.88 C-7.72 48.85, 26.33 49.72, 47.81 47.21 M-40.69 46.76 C-15.49 47.37, 12.82 46.36, 47.77 48.55 M48.42 47.65 C64.88 31.47, 77.27 13.73, 90.49 1.12 M48.57 48.83 C58.57 36.51, 69.65 23.88, 90.97 1.08 M90.75 1.79 C56.56 0.18, 20.73 -0.46, 0.06 1.73 M90.16 0.7 C60.01 0.1, 30.25 0.34, 0.13 -0.76 M0 0 C0 0, 0 0, 0 0 M0 0 C0 0, 0 0, 0 0" stroke="#000000" stroke-width="4" fill="none"></path></g></g><mask></mask><g stroke-linecap="round"><g transform="translate(1698.3933622111344 654.1060802976494) rotate(0 29.267677437271118 24.351174224354082)" fill-rule="evenodd"><path d="M0.11 -0.29 L-33.53 48.7 L52.49 46.38 L95.39 -1.4 L-0.67 -1.73" stroke="none" stroke-width="0" fill="#fa5252" fill-rule="evenodd"></path><path d="M0.49 -0.88 C-7.89 12.17, -19.47 24.11, -36.81 50.24 M-0.96 -0.05 C-10.3 13.09, -20.02 27.77, -35.91 49.22 M-35.07 47.81 C1 46.32, 36.01 46.2, 53.39 46.47 M-35.19 47.74 C-2.75 47.88, 27.87 45.91, 54.73 47.03 M53.83 48.42 C68.76 28.54, 82.16 11.7, 94.67 -1.54 M55.01 45.62 C65.72 32.66, 76.16 20.85, 94.64 0.12 M95.35 -0.12 C68.48 -0.73, 43.15 -0.45, 1.73 0.74 M94.25 -1.13 C71.99 -0.9, 49.83 -1.15, -0.76 -0.62 M0 0 C0 0, 0 0, 0 0 M0 0 C0 0, 0 0, 0 0" stroke="#000000" stroke-width="4" fill="none"></path></g></g><mask></mask><g stroke-linecap="round"><g transform="translate(1567.0517336088092 696.7630504106668) rotate(0 25.285997291763522 26.034602653650268)" fill-rule="evenodd"><path d="M-0.29 1.93 L-45.01 49.1 L50.7 52.61 L95.02 2.41 L-1.73 1.51" stroke="none" stroke-width="0" fill="#228be6" fill-rule="evenodd"></path><path d="M-0.88 1.17 C-14.58 14.83, -29.36 30.76, -43.46 50.48 M-0.05 -0.15 C-12.72 13.32, -23.83 26.37, -44.48 51.72 M-45.89 52.54 C-18.1 52.99, 10.64 50.55, 50.79 53.25 M-45.97 51.46 C-13.3 50.14, 16.46 51.9, 51.36 52.71 M52.74 52.31 C66.91 32.54, 84.14 14.83, 94.88 2.45 M49.94 52.99 C66.03 34.26, 83.29 15.65, 96.54 2.74 M96.31 1.89 C61.18 0.88, 26.77 2.81, 0.74 -1.19 M95.29 3.03 C75.31 2.44, 53.94 0.36, -0.62 0.13 M0 0 C0 0, 0 0, 0 0 M0 0 C0 0, 0 0, 0 0" stroke="#000000" stroke-width="4" fill="none"></path></g></g><mask></mask><g stroke-linecap="round"><g transform="translate(1568.2608509030506 697.3082427825634) rotate(0 21.097294227716702 -67.35661795779106)" fill-rule="evenodd"><path d="M1.93 0.31 L-4.88 -86.68 L44.27 -134.38 L45.07 -43.96 L1.51 0.78" stroke="none" stroke-width="0" fill="#fa5252" fill-rule="evenodd"></path><path d="M1.17 -0.22 C-2.37 -24.91, -3.32 -46.49, -3.5 -87.19 M-0.15 -0.49 C0.08 -23.85, -1.39 -47.96, -2.26 -86.63 M-1.44 -87.48 C14.97 -103.07, 28.41 -119.13, 44.92 -133.26 M-2.52 -85.61 C14.03 -104.86, 33.53 -122.23, 44.37 -132.93 M43.97 -134.57 C43.13 -105.59, 44.61 -77.02, 45.11 -40.91 M44.66 -134.71 C45.58 -102.37, 45.59 -69.93, 45.4 -41.62 M44.55 -42.24 C31.59 -30.08, 21.69 -17.45, -1.19 -1.62 M45.69 -41.67 C36.68 -33.57, 25.85 -25.61, 0.13 -0.87 M0 0 C0 0, 0 0, 0 0 M0 0 C0 0, 0 0, 0 0" stroke="#000000" stroke-width="4" fill="none"></path></g></g><mask></mask><g stroke-linecap="round"><g transform="translate(1520.6493389216876 745.87830597947) rotate(0 23.935180367011924 -68.42503701116885)" fill-rule="evenodd"><path d="M0.31 -1.74 L-0.73 -89.9 L44.55 -138.07 L46.35 -45.82 L3.35 2.37" stroke="none" stroke-width="0" fill="#228be6" fill-rule="evenodd"></path><path d="M-0.22 -1.28 C-0.53 -30.68, 1.87 -59.02, -1.23 -90.77 M-0.49 0.13 C0.48 -18.87, 0.64 -35.97, -0.67 -89.94 M-1.52 -88.44 C13.84 -106.63, 28.74 -119.64, 45.66 -135.65 M0.35 -91.26 C14.31 -105.54, 30.15 -120.77, 45.99 -137.25 M44.36 -138.46 C46.26 -112.38, 46.88 -87.56, 49.39 -46.44 M44.21 -136.96 C45.36 -103.64, 47.43 -69.71, 48.68 -47.49 M48.06 -48.63 C33.58 -30.1, 19.55 -17.27, 0.95 -0.45 M48.63 -46.68 C37.25 -36.57, 25.73 -24.14, 1.7 1.17 M2.83 1.61 C2.02 0.72, 0.99 0.42, 0.04 -0.19 M2.65 1.34 C1.71 1, 0.54 0.33, -0.02 0.14" stroke="#000000" stroke-width="4" fill="none"></path></g></g><mask></mask><g stroke-linecap="round" transform="translate(1793.038235485917 564.0502045863807) rotate(0 45.64803244121168 44.654540788544296)"><path d="M-1.96 -0.5 L93.1 1.27 L92.85 87.55 L-0.1 88.45" stroke="none" stroke-width="0" fill="#228be6"></path><path d="M-1.28 -0.73 C22.01 1.95, 46.37 -0.54, 90.93 -1.92 M0.13 0.55 C26.45 1.28, 54.68 0.37, 91.76 0.19 M93.26 -0.32 C91.22 24.17, 93.21 48.88, 93.04 89.84 M90.44 -0.36 C92.35 21.51, 92.46 42.76, 91.44 89.11 M90.23 88.71 C55 88.13, 18.49 90.24, 0.88 90.86 M91.73 89.18 C71.82 89.27, 52.49 89.01, -0.17 89.54 M-1.31 89.37 C2.26 60.44, -0.65 28.47, -1.88 -1.27 M0.64 89.44 C-0.72 65.37, 0.17 41.8, -0.26 0.07" stroke="#000000" stroke-width="4" fill="none"></path></g><g stroke-linecap="round"><g transform="translate(1752.779072320358 700.3148657754348) rotate(0 23.90994017591038 23.986217367667308)" fill-rule="evenodd"><path d="M-0.13 0.51 L-41.18 48.69 L44.21 48.34 L89.49 0.84 L-0.29 -0.44" stroke="none" stroke-width="0" fill="#228be6" fill-rule="evenodd"></path><path d="M-0.73 -1.35 C-12.72 17.07, -29.74 34.77, -42.45 49.26 M0.55 -0.45 C-10.94 14.98, -23.39 28.63, -40.33 49.07 M-40.84 48.53 C-7.28 48.7, 26.5 48.31, 46.48 45.53 M-40.88 49.86 C-8.75 49.8, 22.79 48.42, 45.74 47.79 M45.34 46.62 C58.63 31.85, 74.02 18.78, 90.27 -1.89 M45.82 46.59 C63.93 28.02, 80.34 9.9, 88.94 0.21 M88.77 1.63 C68.11 -1.84, 44.42 -2.51, -1.27 -0.78 M88.84 -0.86 C61.89 0.63, 35.45 0.27, 0.07 -0.98 M0 0 C0 0, 0 0, 0 0 M0 0 C0 0, 0 0, 0 0" stroke="#000000" stroke-width="4" fill="none"></path></g></g><mask></mask><g stroke-linecap="round"><g transform="translate(1793.3037755380833 652.671242494041) rotate(0 24.89458483837717 24.205336347457887)" fill-rule="evenodd"><path d="M0.51 -0.65 L-42.12 45.62 L46.75 49.15 L91.28 -0.68 L-0.44 -1.35" stroke="none" stroke-width="0" fill="#228be6" fill-rule="evenodd"></path><path d="M-1.35 1.85 C-12.65 12.9, -24.64 25.31, -41.55 47.04 M-0.45 0.84 C-9.48 12.06, -20.32 24.23, -41.73 48.2 M-42.28 47.3 C-18.29 48.21, 4.27 48.54, 43.94 49.6 M-40.94 47.87 C-6.64 48.85, 27.09 48.27, 46.19 48.48 M45.03 47.58 C56.49 37.25, 69.63 24.92, 88.55 1.4 M44.99 49.23 C53.75 39.23, 62.98 29.06, 90.65 -0.99 M92.07 0.35 C62.13 -1.87, 34.42 -1.4, -0.78 -0.09 M89.58 -1.02 C58.39 -1.01, 25.91 0.07, -0.98 -0.25 M0 0 C0 0, 0 0, 0 0 M0 0 C0 0, 0 0, 0 0" stroke="#000000" stroke-width="4" fill="none"></path></g></g><mask></mask><g stroke-linecap="round"><g transform="translate(1612.6075388288232 654.2221269529937) rotate(0 19.883241481149184 23.464324963490384)" fill-rule="evenodd"><path d="M-0.65 -0.67 L-49.99 47.34 L49.66 48.74 L86.25 -1.22 L-1.35 -1.75" stroke="none" stroke-width="0" fill="#fa5252" fill-rule="evenodd"></path><path d="M1.85 -0.36 C-12.2 10.13, -24.87 21.2, -48.56 44.86 M0.84 0.88 C-14.93 14.59, -29.76 28.18, -47.41 45.37 M-48.3 46.99 C-9.13 48.76, 29.61 46.5, 50.11 49.69 M-47.74 46.45 C-26.67 45.91, -6.84 47.14, 48.99 47.37 M48.09 47.16 C59.62 36.74, 69.15 22.1, 88.33 -2.76 M49.74 47.45 C62.47 31.05, 75.02 14.87, 85.94 -0.79 M87.28 -1.96 C64.62 -1.72, 44.68 -0.44, -0.09 1.1 M85.91 -0.65 C54.15 -1.41, 23.56 -1.85, -0.25 0.9 M0 0 C0 0, 0 0, 0 0 M0 0 C0 0, 0 0, 0 0" stroke="#000000" stroke-width="4" fill="none"></path></g></g><mask></mask><g stroke-linecap="round"><g transform="translate(1704.493103276321 979.0516574379313) rotate(0 -41.15697876259148 90.46266962706267)"><path d="M-0.36 -0.64 C-0.94 20.55, -0.68 44.65, -0.97 85.59 M0.88 -0.07 C0.08 30.5, -0.67 61.46, -0.46 86.32 M1.16 85.8 C-22.25 113.33, -48.87 141.51, -81.16 180.38 M0.61 86.12 C-21.32 111.14, -42.46 137.02, -83.47 181.56" stroke="#000000" stroke-width="4" fill="none"></path></g></g><mask></mask><g stroke-linecap="round"><g transform="translate(1609.2529936575716 1066.672558287181) rotate(0 92.74414544881029 -0.18572740187528325)"><path d="M-0.64 -0.36 C41.08 0.23, 85.7 -0.64, 185.41 1.1 M-0.07 0.46 C47.37 -1.91, 95.21 -2.08, 186.13 -0.16" stroke="#000000" stroke-width="4" fill="none"></path></g></g><mask></mask><g stroke-linecap="round"><g transform="translate(1569.6330731782023 1113.9116294061002) rotate(0 91.80042891315719 -0.577954361503032)"><path d="M-0.36 -1.92 C71.7 0.28, 142.65 0.84, 183.96 -0.9 M0.46 0.19 C69.85 0.98, 139.81 1.12, 182.7 -0.42" stroke="#000000" stroke-width="4" fill="none"></path></g></g><mask></mask><g stroke-linecap="round" transform="translate(1614.3354489994322 976.4001540919918) rotate(0 43.99870110191239 44.60584618336674)"><path d="M-0.85 0.25 L86.71 1.72 L89.73 89.32 L1.11 87.99" stroke="none" stroke-width="0" fill="#fa5252"></path><path d="M-1.92 -0.11 C24.5 -0.81, 49.88 1.26, 87.09 1.67 M0.19 -0.29 C34.95 -0.87, 69.18 -0.57, 87.58 -0.02 M88.53 -1.3 C89.44 33.82, 86.49 63.14, 89 90.26 M87.8 0.95 C88.81 31.81, 88.17 64.17, 87.89 88.81 M89.55 87.42 C66.18 87.62, 41.64 89.34, -0.49 90.93 M88.23 89.53 C64.02 89.05, 40.57 89.09, 0.87 89.58 M-1.27 88.43 C0.63 68.84, 2.01 46.52, -1.52 -1.25 M0.07 88.23 C0.53 62.2, 1.41 34.17, -0.88 -0.05" stroke="#000000" stroke-width="4" fill="none"></path></g><g stroke-linecap="round" transform="translate(1701.7201475548673 976.6980781949236) rotate(0 47.570463944943015 44.654540788544296)"><path d="M0.25 -1.29 L96.86 1.73 L95.25 90.42 L-1.22 91.26" stroke="none" stroke-width="0" fill="#fa5252"></path><path d="M-0.11 -0.31 C24.53 1.18, 52.11 0.01, 96.81 1.75 M-0.29 0.85 C27.37 0.8, 55.52 -0.6, 95.12 0.58 M93.84 1.23 C97.81 27.14, 95.2 58.7, 96.19 90.54 M96.09 0.11 C94.85 33.3, 94.97 67.57, 94.74 88.99 M93.35 91.1 C58.37 90.91, 25.31 89.56, 1.72 88.62 M95.46 88.71 C60.84 88.88, 26.59 90.4, 0.37 88.72 M-0.78 89.21 C1.94 71.04, 1.1 48.68, -1.25 0.26 M-0.98 89.06 C1.14 70.93, 1.01 50.4, -0.05 -0.43" stroke="#000000" stroke-width="4" fill="none"></path></g><g stroke-linecap="round"><g transform="translate(1664.1744956883772 1112.4980868678524) rotate(0 23.356481631093686 23.943128007963253)" fill-rule="evenodd"><path d="M-0.29 -0.44 L-45.75 45.69 L48.11 49.89 L90.06 3.28 L-0.2 -1.96" stroke="none" stroke-width="0" fill="#228be6" fill-rule="evenodd"></path><path d="M-0.31 -0.97 C-12.71 14.45, -26.39 28.39, -42.64 47.29 M0.85 -0.46 C-14.3 16.14, -31.07 32.7, -43.81 47.67 M-43.16 49.33 C-10.3 47.56, 28.21 49.56, 49.36 49.63 M-44.29 47.02 C-15.85 46.45, 13.66 46.54, 47.81 48.71 M49.92 46.07 C63.4 32.12, 76.82 18.03, 90.41 2.54 M47.53 48.04 C59.52 34.73, 73.2 21.85, 90.5 0.52 M91 2.43 C73.6 0.96, 52.01 -0.82, 0.26 -1.74 M90.84 2.23 C66.78 0.85, 40.31 -0.34, -0.43 0.12 M0 0 C0 0, 0 0, 0 0 M0 0 C0 0, 0 0, 0 0" stroke="#000000" stroke-width="4" fill="none"></path></g></g><mask></mask><g stroke-linecap="round"><g transform="translate(1701.0940027991505 1065.6267570037248) rotate(0 30.106117074600547 23.81547729922437)" fill-rule="evenodd"><path d="M-0.44 -1.35 L-37.2 48.36 L56.06 45.47 L96.84 -0.94 L-1.96 1.69" stroke="none" stroke-width="0" fill="#fa5252" fill-rule="evenodd"></path><path d="M-0.97 0.26 C-6.15 8.9, -12.81 21.42, -35.61 49.31 M-0.46 0.98 C-11.62 15.33, -22.8 31.78, -35.23 49.26 M-33.57 46.67 C-6.86 48.22, 24.19 47.84, 55.81 46.8 M-35.88 47.85 C-10.65 47.66, 14.38 46.93, 54.89 46.95 M52.25 47.37 C69.75 27.8, 87.09 9.76, 96.09 -1.09 M54.22 45.86 C67.25 32.35, 80.73 15.61, 94.07 -1.68 M95.99 0.54 C72.69 -2.13, 48.73 -0.18, -1.74 -0.52 M95.79 -0.11 C66.55 -1.64, 36.61 -0.95, 0.12 -0.64 M0 0 C0 0, 0 0, 0 0 M0 0 C0 0, 0 0, 0 0" stroke="#000000" stroke-width="4" fill="none"></path></g></g><mask></mask><g stroke-linecap="round"><g transform="translate(1570.3228727787423 1111.992033188581) rotate(0 24.39478102026527 23.951972658036652)" fill-rule="evenodd"><path d="M-1.35 -1.75 L-45.91 48.97 L49.23 50.34 L94.91 -2.58 L1.69 0.26" stroke="none" stroke-width="0" fill="#fa5252" fill-rule="evenodd"></path><path d="M0.26 1.1 C-14.5 15.34, -25.36 27.41, -44.96 47.52 M0.98 -0.16 C-12.46 12.54, -23.9 25.57, -45.02 47.4 M-47.6 46.42 C-22.28 47.57, 0.54 48.39, 50.55 47.99 M-46.42 46.84 C-7.99 47.64, 29.8 49.19, 50.7 49.17 M51.13 48.14 C58.78 40.23, 68.03 29.39, 94.76 -0.16 M49.61 48.42 C66.29 32.51, 79.7 15.08, 94.17 -1.26 M96.39 -0.37 C68.76 -1.19, 45.7 -1.52, -0.52 0.13 M95.74 0.15 C75.02 0.3, 56.27 0.61, -0.64 0.86 M0 0 C0 0, 0 0, 0 0 M0 0 C0 0, 0 0, 0 0" stroke="#000000" stroke-width="4" fill="none"></path></g></g><mask></mask><g stroke-linecap="round"><g transform="translate(1568.4416344480992 1113.4397324263132) rotate(0 23.283112947640234 -67.64502711024556)" fill-rule="evenodd"><path d="M-1.75 -0.02 L1.22 -92 L49.08 -135.46 L44.59 -45.22 L0.26 -1.1" stroke="none" stroke-width="0" fill="#fa5252" fill-rule="evenodd"></path><path d="M1.1 -0.9 C1.94 -24.15, -0.06 -50.87, -0.23 -91.54 M-0.16 -0.42 C0.16 -34.42, 0.18 -69.14, -0.35 -91.61 M-1.33 -89.96 C17.28 -105.35, 35.08 -122.31, 46.72 -133.36 M-0.92 -91.06 C14 -104.78, 29.88 -117.78, 47.9 -136.16 M46.87 -135.75 C47.75 -101.52, 47.01 -66.75, 47.01 -46.29 M47.15 -134.4 C47.35 -114.61, 46.03 -93.71, 45.92 -47.31 M46.81 -48.44 C31.82 -32.51, 17.58 -19.43, 0.13 -1.96 M47.32 -47.8 C34.13 -34.15, 21.5 -21.47, 0.86 0.86 M0 0 C0 0, 0 0, 0 0 M0 0 C0 0, 0 0, 0 0" stroke="#000000" stroke-width="4" fill="none"></path></g></g><mask></mask><g stroke-linecap="round"><g transform="translate(1524.58585259234 1158.4288795402385) rotate(0 21.69559950597653 -68.27051265342845)" fill-rule="evenodd"><path d="M-0.02 1.84 L-2.87 -89.48 L43.77 -140.38 L46.46 -45.86 L-1.1 -1.58" stroke="none" stroke-width="0" fill="#fa5252" fill-rule="evenodd"></path><path d="M-0.9 1.67 C1.17 -23.13, -0.11 -45.58, -2.41 -89.74 M-0.42 -0.02 C-0.78 -22.96, -0.96 -46.11, -2.48 -90.82 M-0.83 -90.39 C17.87 -108.23, 34.99 -128.74, 45.87 -138.21 M-1.94 -91.83 C9.91 -102.76, 22.47 -114.75, 43.07 -137.53 M43.47 -136.7 C43.84 -118.67, 44.35 -100.86, 45.4 -47.31 M44.83 -138.05 C43.01 -111.63, 42.9 -83.84, 44.38 -46.16 M43.25 -47.36 C29.42 -31.42, 12.74 -13.17, -1.96 -0.5 M43.89 -46.17 C27.16 -27.65, 9.48 -8.92, 0.86 0.05 M0 0 C0 0, 0 0, 0 0 M0 0 C0 0, 0 0, 0 0" stroke="#000000" stroke-width="4" fill="none"></path></g></g><mask></mask><g stroke-linecap="round" transform="translate(1795.7388760739332 975.5708812924562) rotate(0 45.64803244121168 44.654540788544296)"><path d="M-1.22 1.95 L92.95 -0.4 L91.4 89.02 L1.93 89.62" stroke="none" stroke-width="0" fill="#fa5252"></path><path d="M1.67 1.75 C28.43 1.34, 57.53 -0.17, 92.99 -0.93 M-0.02 0.58 C36.57 1.25, 72.95 -0.27, 91.91 0.95 M92.34 1.23 C92.55 19.42, 90.58 40.17, 91.51 88.47 M90.9 -0.32 C91.68 22.46, 91.8 43.14, 92.19 88.32 M93.02 88.62 C61.18 88.74, 29.11 89.71, -1.19 89.29 M91.67 88.72 C69.08 89.16, 47.84 89.71, -0.05 89.86 M-1.25 89.57 C-1.86 56.26, 0.02 22.28, -0.5 1.8 M-0.05 88.88 C-0.57 56.21, 0.17 25.27, 0.05 0.56" stroke="#000000" stroke-width="4" fill="none"></path></g><g stroke-linecap="round"><g transform="translate(1754.0695257274701 1111.83554248151) rotate(0 23.90634067981773 24.73941122900652)" fill-rule="evenodd"><path d="M-1.04 1.95 L-40.72 47.41 L47.64 47.09 L87.61 -1.69 L-1.2 0.92" stroke="none" stroke-width="0" fill="#228be6" fill-rule="evenodd"></path><path d="M1.75 -0.15 C-13.69 18.25, -29.58 37.1, -41.45 51.32 M0.58 0.23 C-10.84 14.28, -23.87 28.64, -39.58 48.51 M-39.3 50.94 C-17.4 47.85, 7.07 47.79, 45.1 45.76 M-40.84 50.02 C-16.75 49.8, 5.26 49.24, 44.95 47.27 M45.26 48.04 C58 33.44, 71.26 18.3, 88.69 -1.41 M45.35 46.02 C57.55 31.82, 71.06 18.19, 89.26 0.54 M88.97 -1.85 C60.41 -0.49, 31.2 -1.09, 1.8 1.27 M88.28 0.02 C54.58 0.75, 22.6 -0.02, 0.56 -0.61 M0 0 C0 0, 0 0, 0 0 M0 0 C0 0, 0 0, 0 0" stroke="#000000" stroke-width="4" fill="none"></path></g></g><mask></mask><g stroke-linecap="round"><g transform="translate(1796.0044161260994 1064.1919192001164) rotate(0 24.339562944212787 23.542006380328075)" fill-rule="evenodd"><path d="M1.95 -0.2 L-43.4 49.04 L45.5 47.27 L88.75 -1.6 L0.92 1.95" stroke="none" stroke-width="0" fill="#fa5252" fill-rule="evenodd"></path><path d="M-0.15 0.93 C-9.78 11.85, -19.03 23.56, -39.48 47.03 M0.23 0.87 C-10.44 11.81, -20.79 25.63, -42.3 46.99 M-39.86 47.63 C-11.5 49.08, 19.44 46.69, 44.17 47.77 M-40.78 47.79 C-15.59 47.02, 9.62 47.22, 45.67 48.24 M46.45 48.03 C57.7 35.73, 68.47 21.65, 89.03 -0.33 M44.43 47.43 C61.86 29.39, 79.88 11.48, 90.98 -0.26 M88.59 -0.91 C70.23 -2.15, 49.36 1.7, 1.27 1.55 M90.46 -1.04 C72.04 0.17, 52.09 -0.06, -0.61 0.98 M0 0 C0 0, 0 0, 0 0 M0 0 C0 0, 0 0, 0 0" stroke="#000000" stroke-width="4" fill="none"></path></g></g><mask></mask><g stroke-linecap="round"><g transform="translate(1615.3081794168393 1065.742803659069) rotate(0 20.159291607842647 23.559522386109165)" fill-rule="evenodd"><path d="M-0.2 -1.96 L-44.3 48.36 L47.78 46.21 L85.33 0.14 L1.95 -0.28" stroke="none" stroke-width="0" fill="#fa5252" fill-rule="evenodd"></path><path d="M0.93 0.39 C-17.8 20.11, -35.79 38.83, -46.31 47.26 M0.87 0.27 C-14.07 15.05, -26.17 27.9, -46.35 48.6 M-45.71 47.7 C-10.67 47.46, 20 46.07, 48.28 47.58 M-45.55 48.88 C-22.2 48.3, 2.4 47.75, 48.75 47.55 M48.54 48.26 C64.22 27.62, 78.11 8.75, 86.6 0.96 M47.94 47.16 C61.47 31.68, 75.1 16, 86.67 -1.54 M86.02 -0.64 C64 -1.85, 47.2 0.11, 1.55 -1.76 M85.89 0.09 C61.89 -0.39, 36.06 -0.82, 0.98 0.83 M0 0 C0 0, 0 0, 0 0 M0 0 C0 0, 0 0, 0 0" stroke="#000000" stroke-width="4" fill="none"></path></g></g><mask></mask><g stroke-linecap="round"><g transform="translate(1916.0587496085316 673.0945953154203) rotate(0 137.6275485473841 -0.6127031370881753)"><path d="M0.3 -0.45 C108.11 -1.71, 215.12 -1.24, 274.96 -0.03" stroke="#000000" stroke-width="4.5" fill="none" stroke-dasharray="8 12"></path></g><g transform="translate(1916.0587496085316 673.0945953154203) rotate(0 137.6275485473841 -0.6127031370881753)"><path d="M274.27 1.17 L260.94 6.59 L262.08 -7.74 L274.94 -1.34" stroke="none" stroke-width="0" fill="#000000" fill-rule="evenodd"></path><path d="M275.25 -0.47 C270.93 1.72, 265.82 4.56, 260.65 6.09 M261.62 5.3 C262.09 2.79, 260.28 -3.4, 262.08 -5.89 M261.15 -5.12 C266.54 -4.85, 270.46 -2.31, 274.8 -0.63 M274.96 -0.03 C274.96 -0.03, 274.96 -0.03, 274.96 -0.03" stroke="#000000" stroke-width="4.5" fill="none"></path></g></g><mask></mask><g stroke-linecap="round"><g transform="translate(1902.3640302796819 281.0846585042127) rotate(0 141.07492077172475 174.44600542405098)"><path d="M-0.28 0.83 C82.98 102.37, 165.92 202.68, 282.43 348.07" stroke="#000000" stroke-width="4.5" fill="none" stroke-dasharray="8 12"></path></g><g transform="translate(1902.3640302796819 281.0846585042127) rotate(0 141.07492077172475 174.44600542405098)"><path d="M283.64 347.72 L269.43 342.09 L277.64 333.49 L281.12 348.12" stroke="none" stroke-width="0" fill="#000000" fill-rule="evenodd"></path><path d="M282 349.34 C277.76 347.63, 274.28 343.6, 268.93 342.33 M268.14 342.25 C273.28 337.78, 274.82 336.93, 279.49 334.28 M280.26 333.66 C279.58 338.23, 281.13 344.39, 281.84 347.59 M282.43 348.07 C282.43 348.07, 282.43 348.07, 282.43 348.07" stroke="#000000" stroke-width="4.5" fill="none"></path></g></g><mask></mask><g stroke-linecap="round"><g transform="translate(1919.4823641394826 1063.3926595598907) rotate(0 138.49803197436268 -176.4327336110937)"><path d="M0.83 -0.45 C96.06 -121.88, 190.13 -243.85, 276.17 -352.41" stroke="#000000" stroke-width="4.5" fill="none" stroke-dasharray="8 12"></path></g><g transform="translate(1919.4823641394826 1063.3926595598907) rotate(0 138.49803197436268 -176.4327336110937)"><path d="M275.83 -351.95 L273.38 -339 L262.76 -346.96 L276.23 -350.68" stroke="none" stroke-width="0" fill="#000000" fill-rule="evenodd"></path><path d="M277.44 -353.11 C276.48 -347.61, 273.2 -342.34, 273.61 -337.46 M273.53 -336.61 C267.78 -341.36, 265.65 -343.28, 263.56 -344.65 M262.94 -346.28 C266.2 -348.35, 271.05 -350.62, 275.69 -351.43 M276.17 -352.41 C276.17 -352.41, 276.17 -352.41, 276.17 -352.41" stroke="#000000" stroke-width="4.5" fill="none"></path></g></g><mask></mask><g stroke-linecap="round" transform="translate(2384.2241905480887 546.7290809600248) rotate(0 352.90828733772 44.963503151018614)"><path d="M-0.37 0.78 C225.22 -2.73, 450.67 -1.93, 706 0.7 M0.38 -0.34 C230.41 -1.54, 461.32 -1.5, 706.13 0.06 M704.97 -1.07 C706.07 24.98, 705.88 49.75, 707.13 90.8 M704.83 0.43 C704.89 33.72, 705.87 67.6, 706.42 89.76 M705.81 89.4 C477.71 88.94, 249.86 87.77, -0.65 89.18 M706.04 90.18 C538.85 89.49, 371.52 89.84, -0.35 89.82 M1.8 91.19 C2.43 60.58, 0.78 33.9, 0.25 -1.29 M0.56 89.32 C0.2 56.03, -0.98 20.53, -0.15 0.96" stroke="#aaa" stroke-width="4" fill="none"></path></g><g stroke-linecap="round"><g transform="translate(2384.8473016101525 546.3373259058444) rotate(0 -48.07425744707598 93.04286318134052)"><path d="M1.96 -0.32 C-26.26 25.75, -50.5 52.49, -95.06 97.33 M-0.86 -0.36 C-21.65 24.18, -44.28 47.2, -96.66 96.6 M-97.87 96.2 C-96.92 130.82, -97.34 167.75, -95.92 186.44 M-96.37 96.67 C-96.26 116.22, -96.35 134.52, -96.97 185.12 M-98.11 184.95 C-63.54 154.67, -35.49 121.34, -5.26 90.21 M-96.16 185.02 C-73.13 159.36, -47.85 134.73, -3.65 91.54" stroke="#aaa" stroke-width="4" fill="none"></path></g></g><mask></mask><g stroke-linecap="round"><g transform="translate(2289.983266737897 731.2254654629658) rotate(0 399.76433431426676 -46.11450010734302)"><path d="M-0.13 -0.34 C271.57 -2.31, 543.36 -2.07, 705.89 -0.52 M-0.14 0.2 C255.46 2.67, 510.82 2.48, 705.59 0.38 M705.07 -0.21 C733.98 -28.85, 764.8 -56.05, 799.67 -94.23 M705.55 -0.25 C743.47 -36.76, 779.23 -72.61, 798.35 -92.13" stroke="#aaa" stroke-width="4" fill="none"></path></g></g><mask></mask><g stroke-linecap="round"><g transform="translate(2333.543303097812 601.5133424206972) rotate(0 354.1852938149394 42.219571758352856)"><path d="M-0.84 -0.04 C1.97 21.57, 2.56 42.75, -1.3 84.48 M0.5 0.52 C-0.1 33.63, -0.57 65.49, 0.95 83.35 M-0.09 82.93 C182.69 84.63, 366.23 84.72, 708.83 83.97 M-0.1 83.59 C142.44 83.85, 285.08 83.7, 709.67 83.01" stroke="#aaa" stroke-width="4" fill="none"></path></g></g><mask></mask><g stroke-linecap="round"><g transform="translate(2646.5641287216363 549.7650687323589) rotate(0 -41.20493763487252 91.35149312184348)"><path d="M-0.04 1.16 C0.32 35.71, 0.4 66.64, 1.23 87.23 M0.52 0.61 C0.48 18.42, -0.5 37.51, 0.11 84.91 M-0.8 84.7 C-19.45 109.98, -39.69 131.17, -81.26 180.12 M0.86 84.99 C-28.02 118.16, -56.88 151.85, -83.64 182.09" stroke="#000000" stroke-width="4" fill="none"></path></g></g><mask></mask><g stroke-linecap="round" transform="translate(2556.4064744447473 546.1318888199049) rotate(0 43.99870110191239 46.04788792143799)"><path d="M1.16 0.46 C26.73 0.55, 48.68 1.25, 89.89 -1.72 M0.61 0.79 C23.4 -0.66, 47.46 -0.35, 87.58 -0.53 M87.36 1.31 C88.78 26.41, 86.11 51.5, 86.02 92.96 M87.65 0.6 C87.6 26.69, 88.09 52.33, 87.99 91.44 M86.81 90.48 C59.47 91.15, 33.91 92.33, 1.1 93.38 M88.13 91.22 C60.18 91.62, 31.91 91.3, 0.9 92.73 M-0.85 92.34 C-0.48 59.05, 2.54 22.67, 1.11 -1.22 M0.05 91.95 C0.2 55.64, -1.63 18.8, 0.25 -0.33" stroke="#000000" stroke-width="4" fill="none"></path></g><g stroke-linecap="round"><g transform="translate(2553.3383958939044 638.0743841533368) rotate(0 23.701338381754113 21.896396884933125)"><path d="M0.46 1.74 C-10.44 10.45, -20.7 25.14, -44.19 43.85 M0.79 0.14 C-14.83 16.81, -29.39 31.03, -43.01 44.26 M-41.17 45.44 C-14.1 43.36, 12.97 43.45, 51.1 45.31 M-41.87 44.39 C-16.71 45.47, 8 45.42, 49.59 45.59 M48.62 43.68 C64.3 27.4, 80.96 11.67, 91.6 0.26 M49.37 45.3 C59.57 34.32, 68.23 26, 90.95 0.78 M90.56 -1.29 C73.24 1.04, 52.83 0.11, 0.45 0.49 M90.17 0.96 C56.55 -1.38, 22.4 -0.82, 1.34 -1.8" stroke="#000000" stroke-width="4" fill="none"></path></g></g><mask></mask><g stroke-linecap="round"><g transform="translate(2512.393898224057 682.7054444830086) rotate(0 23.484639915254206 23.967752343931494)"><path d="M1.74 0.53 C-14.69 15.38, -25.17 26.47, -46.6 48.14 M0.14 -0.2 C-14.92 17.07, -32.46 33.04, -46.19 47.03 M-45.01 48.69 C-22.65 48.62, 2.17 48.02, 50.01 47.9 M-46.06 47.37 C-8.45 46.44, 28.35 46.87, 50.3 49.26 M48.39 47.12 C64.04 32.4, 80.19 17.53, 92.87 -1.32 M50 48.46 C59.29 37.05, 71.24 26.48, 93.38 -0.68 M91.32 1.92 C67.04 0.36, 39.11 -1.02, 1.95 1.65 M93.57 0.35 C65.81 -0.06, 41.02 -0.37, -0.34 -0.87" stroke="#000000" stroke-width="4" fill="none"></path></g></g><mask></mask><g stroke-linecap="round"><g transform="translate(2463.9968570812466 731.9245323769642) rotate(0 46.21886352347917 -91.88762341865865)"><path d="M0.53 -1.3 C0.87 -31.05, -2.24 -66.59, 0.56 -91 M-0.2 0.95 C-0.78 -33.68, -1.58 -66.82, -0.54 -92.45 M1.12 -93.84 C25.71 -119.4, 49.75 -142.64, 92.12 -183.38 M-0.2 -91.73 C23.14 -116.63, 47.8 -141.32, 93.48 -184.73" stroke="#000000" stroke-width="4" fill="none"></path></g></g><mask></mask><g stroke-linecap="round"><g transform="translate(2510.3777177434713 682.0927431723458) rotate(0 -0.1275044996291399 -44.108982825510765)"><path d="M-1.3 1.23 C1.12 -30.51, -1.49 -56.59, 1.05 -87.91 M0.95 0.11 C-0.55 -34.31, -0.43 -67.65, -0.4 -89.45" stroke="#000000" stroke-width="4" fill="none"></path></g></g><mask></mask><g stroke-linecap="round"><g transform="translate(2997.1324018800024 789.5433146835937) rotate(0 64.30267693157157 -63.90030914203419)"><path d="M1.23 1.89 C47.19 -50.33, 99.15 -99.01, 128.5 -128.77 M0.11 -0.42 C39.72 -42.48, 80.15 -83.54, 126.96 -129.69" stroke="#000000" stroke-width="4" fill="none"></path></g><g transform="translate(2997.1324018800024 789.5433146835937) rotate(0 64.30267693157157 -63.90030914203419)"><path d="M0.95 1.45 L4.75 -14.05 L15.21 -1.67 L0.19 3.84" stroke="none" stroke-width="0" fill="#000000" fill-rule="evenodd"></path><path d="M2.16 3.31 C1.79 -4.1, 5.71 -8.28, 7.02 -11.12 M1.31 1.57 C2.39 -2.84, 4.24 -7.37, 5.86 -11.81 M7.24 -13.56 C9.85 -9.35, 12.13 -5.08, 14.8 -2.74 M5.72 -12.3 C8.29 -9.82, 11.84 -7.12, 14.86 -4.02 M15.16 -2.68 C13.27 -2.25, 8.28 -2.27, 1.43 0.58 M15.04 -2.83 C11.88 -1.58, 6.91 -0.73, 0.91 1.98 M1.23 1.89 C1.23 1.89, 1.23 1.89, 1.23 1.89 M1.23 1.89 C1.23 1.89, 1.23 1.89, 1.23 1.89" stroke="#000000" stroke-width="4" fill="none"></path></g><g transform="translate(2997.1324018800024 789.5433146835937) rotate(0 64.30267693157157 -63.90030914203419)"><path d="M126.67 -130.13 L120.43 -117.36 L112.82 -122.76 L125.92 -127.74" stroke="none" stroke-width="0" fill="#000000" fill-rule="evenodd"></path><path d="M127.88 -128.27 C123.71 -124.81, 123.74 -118.04, 122.71 -114.43 M127.04 -130.01 C124.9 -125.44, 123.6 -121.09, 121.55 -115.12 M122.92 -116.87 C119.19 -118.94, 115.26 -120.78, 112.41 -123.83 M121.41 -115.62 C118.82 -118.11, 117.26 -120.43, 112.47 -125.11 M112.78 -123.77 C116.75 -125.4, 117.56 -127.58, 127.15 -131 M112.66 -123.92 C117.18 -125.27, 119.91 -127.29, 126.64 -129.6 M126.96 -129.69 C126.96 -129.69, 126.96 -129.69, 126.96 -129.69 M126.96 -129.69 C126.96 -129.69, 126.96 -129.69, 126.96 -129.69" stroke="#000000" stroke-width="4" fill="none"></path></g></g><mask></mask><g transform="translate(3069.3569052562007 724.3011346429189) rotate(0 162.0000000000001 62.5)"><text x="0" y="43.5" font-family="Virgil, Segoe UI Emoji" font-size="50px" fill="#2b8a3e" text-anchor="start" style="white-space: pre;" direction="ltr">out_channels</text><text x="0" y="106" font-family="Virgil, Segoe UI Emoji" font-size="50px" fill="#2b8a3e" text-anchor="start" style="white-space: pre;" direction="ltr">= 3</text></g><g stroke-linecap="round"><g transform="translate(2388.7383386789934 495.9209028983253) rotate(0 349.7608768897161 -0.33609644155590956)"><path d="M-0.69 -0.29 C164.9 -2.23, 329.5 -2.02, 700.15 -0.16 M-0.21 -0.12 C276.64 1.02, 553.23 1.44, 700.21 0.31" stroke="#000000" stroke-width="4" fill="none"></path></g><g transform="translate(2388.7383386789934 495.9209028983253) rotate(0 349.7608768897161 -0.33609644155590956)"><path d="M-2.04 -2.03 L12.87 -4.82 L11.89 7.97 L-0.89 -2.24" stroke="none" stroke-width="0" fill="#000000" fill-rule="evenodd"></path><path d="M-1.97 -0.82 C3.21 -1.13, 6.58 -2.23, 13.11 -6.96 M-1.09 -0.51 C4.59 -3.05, 9.8 -4.78, 13.22 -6.08 M13.44 -6.82 C12.7 -2.9, 12.59 -0.55, 12.71 6.31 M12.48 -6.64 C13.38 -2.22, 12.46 1.23, 12.33 5.62 M13.89 6.21 C8.23 3.51, 6.01 1.49, -1.08 -0.18 M13.4 6.6 C9.53 4.83, 7.12 3.69, -1.17 0.36 M-0.69 -0.29 C-0.69 -0.29, -0.69 -0.29, -0.69 -0.29 M-0.69 -0.29 C-0.69 -0.29, -0.69 -0.29, -0.69 -0.29" stroke="#000000" stroke-width="4" fill="none"></path></g><g transform="translate(2388.7383386789934 495.9209028983253) rotate(0 349.7608768897161 -0.33609644155590956)"><path d="M698.86 -1.44 L686.61 8.54 L685.55 -4.02 L700.01 -1.64" stroke="none" stroke-width="0" fill="#000000" fill-rule="evenodd"></path><path d="M698.92 -0.23 C697.81 2.72, 694.79 4.63, 686.85 6.4 M699.81 0.09 C694.77 2.48, 689.25 5.8, 686.97 7.28 M687.18 6.54 C686.2 5.12, 686.07 2.13, 686.37 -5.68 M686.22 6.72 C687.25 2.73, 686.31 -2.22, 685.99 -6.38 M687.55 -5.78 C689 -5.34, 693.89 -4.08, 699.82 0.41 M687.06 -5.4 C688.66 -4.87, 691.75 -3.47, 699.73 0.96 M700.21 0.31 C700.21 0.31, 700.21 0.31, 700.21 0.31 M700.21 0.31 C700.21 0.31, 700.21 0.31, 700.21 0.31" stroke="#000000" stroke-width="4" fill="none"></path></g></g><mask></mask><g transform="translate(2412.8897861882656 327.30392523117644) rotate(0 323.5 62.5)"><text x="323.5" y="43.5" font-family="Virgil, Segoe UI Emoji" font-size="50px" fill="#000000" text-anchor="middle" style="white-space: pre;" direction="ltr">out_width</text><text x="323.5" y="106" font-family="Virgil, Segoe UI Emoji" font-size="50px" fill="#000000" text-anchor="middle" style="white-space: pre;" direction="ltr">= width - kernel_width + 1</text></g><g stroke-linecap="round"><g transform="translate(1618.1666922198915 110.13712055147698) rotate(0 131.6882500022287 0.4718580627858131)"><path d="M0.8 0.83 C104.32 2, 206.91 0.43, 263.46 0.17 M-0.08 -0.32 C67.28 1.15, 135.42 1.25, 261.23 0.71" stroke="#d9480f" stroke-width="4" fill="none"></path></g><g transform="translate(1618.1666922198915 110.13712055147698) rotate(0 131.6882500022287 0.4718580627858131)"><path d="M0.77 2.67 L13.35 -3.56 L14.2 5.2 L2.49 1.09" stroke="none" stroke-width="0" fill="#d9480f" fill-rule="evenodd"></path><path d="M1.55 1.62 C7.13 -0.44, 11.79 -4.43, 15.81 -5.36 M0.72 0.53 C4.1 -0.27, 8.17 -1.82, 13.71 -4.85 M14.07 -4.43 C14.01 -2.21, 14.23 -0.13, 14.8 6.41 M14.93 -5.28 C13.93 -2.24, 13.71 1.66, 14.15 7.13 M13.26 6.23 C9.72 3.62, 4.3 2.78, -0.68 0.46 M13.74 7.12 C8.73 4.89, 3.26 2.97, 1.44 0.87 M0.8 0.83 C0.8 0.83, 0.8 0.83, 0.8 0.83 M0.8 0.83 C0.8 0.83, 0.8 0.83, 0.8 0.83" stroke="#d9480f" stroke-width="4" fill="none"></path></g><g transform="translate(1618.1666922198915 110.13712055147698) rotate(0 131.6882500022287 0.4718580627858131)"><path d="M261.21 2.55 L246.62 9.05 L247.42 -7.54 L262.93 0.97" stroke="none" stroke-width="0" fill="#d9480f" fill-rule="evenodd"></path><path d="M261.98 1.5 C256.74 4.37, 250.68 5.4, 249.08 7.25 M261.15 0.42 C257.46 2.81, 254.53 4.55, 246.99 7.77 M247.34 8.19 C247.16 5.31, 247.37 2.29, 248.02 -6.34 M248.21 7.33 C247.35 2.79, 247.12 -0.89, 247.37 -5.62 M246.48 -6.52 C252.69 -4.67, 256.94 -1.03, 259.76 0.34 M246.96 -5.62 C252.65 -3.14, 257.8 -0.13, 261.88 0.76 M261.23 0.71 C261.23 0.71, 261.23 0.71, 261.23 0.71 M261.23 0.71 C261.23 0.71, 261.23 0.71, 261.23 0.71" stroke="#d9480f" stroke-width="4" fill="none"></path></g></g><mask></mask><g transform="translate(1598.6411785177775 10) rotate(0 209 31)"><text x="0" y="44" font-family="Virgil, Segoe UI Emoji" font-size="50px" fill="#d9480f" text-anchor="start" style="white-space: pre;" direction="ltr">kernel_width = 3</text></g><g transform="translate(1408.2625488405465 201.54637258270589) rotate(0 17 75.5)"><text x="0" y="106" font-family="Virgil, Segoe UI Emoji" font-size="119px" fill="#2b8a3e" text-anchor="start" style="white-space: pre;" direction="ltr">1</text></g><g transform="translate(1398.3939331386782 598.4504989481582) rotate(0 43.5 75.5)"><text x="0" y="106" font-family="Virgil, Segoe UI Emoji" font-size="119px" fill="#2b8a3e" text-anchor="start" style="white-space: pre;" direction="ltr">2</text></g><g transform="translate(1402.029224332582 1006.294685615645) rotate(0 41.5 75.5)"><text x="0" y="106" font-family="Virgil, Segoe UI Emoji" font-size="119px" fill="#2b8a3e" text-anchor="start" style="white-space: pre;" direction="ltr">3</text></g><g stroke-linecap="round"><g transform="translate(1429.8981724722044 1169.5262772496476) rotate(0 -0.05220847419529662 53.674817486771644)"><path d="M-0.4 1.9 C1.05 37.54, -0.23 76.17, -0.21 105.44" stroke="#2b8a3e" stroke-width="4.5" fill="none" stroke-dasharray="8 12"></path></g><g transform="translate(1429.8981724722044 1169.5262772496476) rotate(0 -0.05220847419529662 53.674817486771644)"><path d="M0.04 103.7 L-6.97 91.94 L4.27 91.4 L1.59 106.71" stroke="none" stroke-width="0" fill="#2b8a3e" fill-rule="evenodd"></path><path d="M-0.51 106.87 C-2.41 99.89, -5.63 95.14, -6.6 91.2 M-5.46 90.67 C-1.91 90.52, 0.91 91.64, 5.92 92.99 M6.58 92.37 C3.71 95.48, 1.91 99.13, 1.09 106 M-0.21 105.44 C-0.21 105.44, -0.21 105.44, -0.21 105.44" stroke="#2b8a3e" stroke-width="4.5" fill="none"></path></g></g><mask></mask><g transform="translate(1352.8628986418335 1289.3249106110086) rotate(0 220 31.000000000000057)"><text x="0" y="44" font-family="Virgil, Segoe UI Emoji" font-size="50px" fill="#2b8a3e" text-anchor="start" style="white-space: pre;" direction="ltr">out_channels = 3</text></g><g stroke-linecap="round"><g transform="translate(1503.8466534663485 207.45351115683513) rotate(0 40.37524106704541 -40.560440037184435)"><path d="M0.21 -0.84 C24.51 -26.79, 50.79 -52.41, 80.25 -79.57 M0.9 -0.99 C27.61 -27.21, 54.74 -54.03, 80.54 -80.28" stroke="#862e9c" stroke-width="4" fill="none"></path></g><g transform="translate(1503.8466534663485 207.45351115683513) rotate(0 40.37524106704541 -40.560440037184435)"><path d="M0.47 -1.94 L3.72 -16.16 L15.21 -4.06 L-0.07 -0.67" stroke="none" stroke-width="0" fill="#862e9c" fill-rule="evenodd"></path><path d="M0.37 -1.48 C1.04 -5.78, 3.28 -10.36, 4.83 -13.97 M0.88 -1.59 C2.18 -5.74, 3.42 -9.85, 5.05 -14.5 M4.55 -14.96 C7.04 -12.41, 11.51 -9.45, 13.54 -7.04 M5.27 -14.6 C7.51 -12.99, 8.47 -11.63, 14.37 -6.56 M13.92 -4.66 C11.39 -3.57, 5.26 -3.4, -0.43 -0.66 M14.33 -5.6 C10.56 -3.94, 8.32 -3.61, 0.25 -0.95 M0.21 -0.84 C0.21 -0.84, 0.21 -0.84, 0.21 -0.84 M0.21 -0.84 C0.21 -0.84, 0.21 -0.84, 0.21 -0.84" stroke="#862e9c" stroke-width="4" fill="none"></path></g><g transform="translate(1503.8466534663485 207.45351115683513) rotate(0 40.37524106704541 -40.560440037184435)"><path d="M80.8 -81.38 L73.89 -67.36 L67.39 -73.13 L80.26 -80.1" stroke="none" stroke-width="0" fill="#862e9c" fill-rule="evenodd"></path><path d="M80.7 -80.91 C78.12 -76.24, 77.17 -71.95, 75 -65.17 M81.21 -81.02 C79.23 -75.56, 76.98 -69.97, 75.22 -65.71 M74.72 -66.17 C72.07 -68.62, 71.45 -70.71, 65.72 -76.11 M75.44 -65.81 C74.08 -67.95, 71.33 -70.27, 66.55 -75.64 M66.09 -73.73 C71.27 -75.21, 72.85 -77.87, 79.9 -80.09 M66.51 -74.67 C69.28 -75.7, 73.67 -77.8, 80.58 -80.39 M80.54 -80.28 C80.54 -80.28, 80.54 -80.28, 80.54 -80.28 M80.54 -80.28 C80.54 -80.28, 80.54 -80.28, 80.54 -80.28" stroke="#862e9c" stroke-width="4" fill="none"></path></g></g><mask></mask><g transform="translate(1260.7278611937863 86.1694027651522) rotate(0 137 62.5)"><text x="0" y="43.5" font-family="Virgil, Segoe UI Emoji" font-size="50px" fill="#862e9c" text-anchor="start" style="white-space: pre;" direction="ltr">in_channels</text><text x="0" y="106" font-family="Virgil, Segoe UI Emoji" font-size="50px" fill="#862e9c" text-anchor="start" style="white-space: pre;" direction="ltr">= 2</text></g><g stroke-linecap="round"><g transform="translate(2245.724398026803 776.6862411512863) rotate(0 375.81458822444733 -22.79517903023867)"><path d="M-0.43 -0.24 C278.82 0.87, 557.56 1.72, 706.02 0.62 M0.17 -0.05 C148.56 3.14, 297.18 3.04, 705.6 0.09 M704.36 0.06 C723.15 -14.72, 735.69 -32.54, 750.44 -47.91 M706.32 0.13 C717.11 -13.06, 730.18 -25.48, 752.06 -46.58" stroke="#aaa" stroke-width="4" fill="none"></path></g></g><mask></mask><g stroke-linecap="round"><g transform="translate(2247.349343403163 777.4473685140667) rotate(0 19.45752496721434 -67.40736760768522)"><path d="M-0.6 -0.21 C-0.4 -29.88, 1.71 -57.62, 1.55 -95.96 M-0.13 -0.25 C1.79 -37.04, 1.54 -73.56, 0.23 -93.86 M0.06 -92.44 C10.23 -104.59, 17.36 -114.77, 38.18 -134.4 M0.13 -94.93 C10.81 -105.94, 22.21 -117.98, 39.52 -134.6" stroke="#aaa" stroke-width="4" fill="none"></path></g></g><mask></mask><g stroke-linecap="round"><g transform="translate(2247.44673100713 775.1556493022656) rotate(0 20.612871338011132 -21.90358850653189)"><path d="M-0.21 -0.8 C10.21 -9.93, 22.33 -21.05, 39.37 -42.28 M-0.25 0.86 C7.74 -8.2, 16.18 -17.43, 41.47 -44.67" stroke="#aaa" stroke-width="4" fill="none"></path></g></g><mask></mask><g stroke-linecap="round"><g transform="translate(2416.6175515693167 776.3202851527351) rotate(0 24.10501761138994 -68.33672996303773)"><path d="M-0.8 -0.63 C1.59 -21.39, 1.83 -46.32, 1.79 -92.29 M0.86 -0.34 C0.72 -31.16, 0.35 -61.66, -0.59 -90.32 M0.74 -91.49 C9.88 -103.61, 21.75 -113.52, 49.01 -136.13 M-0.62 -90.18 C16.95 -107.29, 35.78 -125.1, 48.85 -136.33" stroke="#000000" stroke-width="4" fill="none"></path></g></g><mask></mask><g stroke-linecap="round"><g transform="translate(2416.570809315172 776.5735553139684) rotate(0 73.8810561012483 -22.156877502294407)"><path d="M-0.63 1.31 C28 1.95, 52.47 2.19, 98.54 0.86 M-0.34 0.6 C28.71 -0.63, 58.08 -1.46, 100.51 -0.65 M99.33 -1.62 C112.4 -15.61, 127.67 -28.61, 148.4 -45.49 M100.64 -0.87 C115.26 -14.29, 129.18 -29.25, 148.2 -46.14" stroke="#000000" stroke-width="4" fill="none"></path></g></g><mask></mask><g stroke-linecap="round"><g transform="translate(2417.0059379878994 776.138426641241) rotate(0 24.230743253067885 -23.185844267648434)"><path d="M1.31 0.88 C15.34 -15.24, 29.18 -29.03, 47.86 -47.25 M0.6 -0.17 C12.77 -12.46, 24.88 -25.73, 46.34 -46.97" stroke="#000000" stroke-width="4" fill="none"></path></g></g><mask></mask><g transform="translate(2587.367033217717 542.2444856354603) rotate(0 13 57)"><text x="0" y="79" font-family="Virgil, Segoe UI Emoji" font-size="89px" fill="#2b8a3e" text-anchor="start" style="white-space: pre;" direction="ltr">1</text></g><g transform="translate(2588.3936134288488 683.1153732407415) rotate(0 32.5 57)"><text x="0" y="79" font-family="Virgil, Segoe UI Emoji" font-size="89px" fill="#2b8a3e" text-anchor="start" style="white-space: pre;" direction="ltr">2</text></g><g transform="translate(2441.031783655992 773.6815266451713) rotate(0 31.5 57)"><text x="0" y="79" font-family="Virgil, Segoe UI Emoji" font-size="89px" fill="#2b8a3e" text-anchor="start" style="white-space: pre;" direction="ltr">3</text></g></svg>