<svg xmlns="http://www.w3.org/2000/svg" xmlns:lucid="lucid" width="2637" height="1478.5"><g lucid:page-tab-id="0_0"><path d="M-79.5-440h3000v2000h-3000z" fill="#f2f3f5"/><path d="M24 1453.5V35.1M24 1453.46v1.54" stroke="#3a414a" stroke-width="3" fill="none"/><path d="M24 26.95l7.64 12.9H16.36z" stroke="#3a414a" stroke-width="3" fill="#3a414a"/><path d="M25.5 1454.5h2576.4M25.54 1454.5H24" stroke="#3a414a" stroke-width="3" fill="none"/><path d="M2610.05 1454.5l-12.9 7.64v-15.28z" stroke="#3a414a" stroke-width="3" fill="#3a414a"/><path d="M25.5 1016.54l61.88 1.57 192.08 6.92 49-.96 34.7-2.14 26.54-2.77 21.18-3.1 17.35-3.3 14.5-3.4 12.32-3.44 10.6-3.42 9.2-3.43 8.1-3.4 7.16-3.36 6.4-3.35 5.73-3.3 5.17-3.28 4.68-3.26 4.27-3.23 3.9-3.23 3.6-3.22 3.3-3.23 3.04-3.26 2.8-3.26 2.26-2.83 1.07-1.45 1.16-1.73 1.27-2.1 1.44-2.57 1.62-3.2 1.85-4.1 2.16-5.38 2.57-7.28 3.17-10.33 4.12-15.75 5.94-27.5 14.22-84.37 28.04-170.26 11.56-53.28 9.4-35.94 8.14-26.46 5.38-15.45 2.78-7.15 3.46-7.87 4.16-8.48 4.82-8.9 5.38-8.97 5.76-8.78 5.94-8.26 5.9-7.55 5.73-6.7 5.44-5.85 5.06-5.02 4.7-4.27 4.3-3.6 3.97-3.05 3.63-2.55 3.34-2.15 3.08-1.8 2.83-1.5 2.63-1.26 2.44-1.05 2.28-.86 2.14-.72 2-.57 1.9-.45 1.8-.35 1.7-.26 1.62-.18 1.56-.1 1.5-.05 1.44.04 1.4.08 1.35.13 1.33.2 1.28.23 1.27.3 1.24.32 1.23.4 1.2.43 1.2.5 1.2.55 1.17.6 1.2.7 1.17.73 1.2.83 1.2.9 1.2 1 1.24 1.1 1.26 1.2 1.27 1.34 1.3 1.5 1.33 1.65 1.36 1.86 1.4 2.08 1.44 2.36 1.5 2.67.47.9 1.3 2.68 1.54 3.56 1.88 4.9 2.36 6.95 3.04 10.4 4.1 16.57 5.83 28.88 9.12 57.64 17.08 149.45 30.83 369.44 7.52 86.43 1.9 12.6 1.73 8.9 1.65 6.93 1.6 5.68 1.6 4.82 1.57 4.2 1.58 3.7 1.6 3.36 1.6 3.05 1.64 2.8 1.66 2.6 1.7 2.45 1.77 2.3 1.82 2.18 1.9 2.1 1.96 1.98 2.08 1.93 2.18 1.87 2.3 1.82 2.46 1.76 2.64 1.73 2.84 1.7 3.08 1.67 3.38 1.66 3.72 1.64 4.16 1.62 4.67 1.6 5.34 1.57 6.15 1.55 7.23 1.5 8.67 1.43 10.65 1.3 13.5 1.05 17.88.66 8.92.07 3.13-.06 3.06-.2 3-.3 2.97-.45 2.94-.56 2.9-.68 2.9-.8 2.9-.95 2.9-1.08 2.9-1.23 2.96-1.38 3-1.57 3.02-1.75 3.1-1.96 3.17-2.2 3.24-2.48 3.37-2.8 3.5-3.12 3.6-3.55 3.8-4.02 3.96-4.6 4.17-5.28 4.43-6.1 4.7-7.08 5.03-8.3 5.4-9.86 5.84-11.8 6.36-14.3 6.97-17.64 7.67-22.1 8.52-28.32 9.53-37.27 10.74-50.88 12.27-73.2 14.45-116.1 41.35-501.57.68-4.17" stroke="#3a414a" stroke-width="3" stroke-linejoin="round" fill="none"/><path d="M25.54 1016.54l-1.54-.04" stroke="#3a414a" stroke-width="3" fill="none"/><path d="M1213.48 282.95l5.48 13.97-15.08-2.44z" stroke="#3a414a" stroke-width="3" fill="#3a414a"/></g></svg>