<svg version="1.1" xmlns="http://www.w3.org/2000/svg" viewBox="0 0 1207.7752636641362 1918.495326234853" width="1207.7752636641362" height="1918.495326234853">
  <!-- svg-source:excalidraw -->
  
  <defs>
    <style class="style-fonts">
      @font-face {
        font-family: "Virgil";
        src: url("https://excalidraw.com/Virgil.woff2");
      }
      @font-face {
        font-family: "Cascadia";
        src: url("https://excalidraw.com/Cascadia.woff2");
      }
    </style>
  </defs>
  <rect x="0" y="0" width="1207.7752636641362" height="1918.495326234853" fill="#ffffff"></rect><g stroke-linecap="round" transform="translate(454.0770778738636 10.75) rotate(0 67.5 30)"><path d="M15 0 M15 0 C35.76 0.26, 59.01 0.62, 120 0 M15 0 C36.36 0.23, 58.99 -0.27, 120 0 M120 0 C130.04 -1.01, 133.21 5.52, 135 15 M120 0 C129.46 -1.13, 134.55 5.89, 135 15 M135 15 C133.35 28.17, 136.42 36.57, 135 45 M135 15 C135.11 25.01, 134.61 34.72, 135 45 M135 45 C134.91 54.69, 128.94 61.57, 120 60 M135 45 C137.16 55.19, 128.24 61.82, 120 60 M120 60 C81.59 58.43, 38.01 61.99, 15 60 M120 60 C84.57 60.55, 48.59 60.68, 15 60 M15 60 C4.41 60.5, 1.07 54.75, 0 45 M15 60 C5.99 58.45, -0.17 56.11, 0 45 M0 45 C-1.59 36.89, 0.09 26.67, 0 15 M0 45 C-0.04 34.88, 0.21 24.88, 0 15 M0 15 C-1.58 4.34, 4.89 1.8, 15 0 M0 15 C-2.04 4.99, 6.19 -1.04, 15 0" stroke="#000000" stroke-width="1" fill="none"></path></g><g transform="translate(466.5770778738636 15.75) rotate(0 55 25)"><text x="55" y="18" font-family="Virgil, Segoe UI Emoji" font-size="20px" fill="#000000" text-anchor="middle" style="white-space: pre;" direction="ltr">Initialize </text><text x="55" y="43" font-family="Virgil, Segoe UI Emoji" font-size="20px" fill="#000000" text-anchor="middle" style="white-space: pre;" direction="ltr">environment</text></g><g stroke-linecap="round" transform="translate(640.5770778738636 10.25) rotate(0 67.5 30)"><path d="M15 0 M15 0 C51.14 1.18, 84.1 -0.68, 120 0 M15 0 C53.29 -1.2, 92.52 -1.27, 120 0 M120 0 C131.69 0.99, 135.57 3.89, 135 15 M120 0 C128.72 1.91, 136.22 5.41, 135 15 M135 15 C135.48 24.59, 134.03 36.7, 135 45 M135 15 C134.28 22.38, 135.8 30.73, 135 45 M135 45 C133.78 56.39, 129.04 58.66, 120 60 M135 45 C132.72 54.38, 128.11 60.19, 120 60 M120 60 C80.2 60.71, 43.01 59.48, 15 60 M120 60 C78.7 60.08, 36.26 60.04, 15 60 M15 60 C3.39 59.46, -1.28 55.09, 0 45 M15 60 C3.16 61.64, 0.07 55.42, 0 45 M0 45 C-0.91 35.99, 1.22 23.65, 0 15 M0 45 C0.58 35.16, -0.84 24.52, 0 15 M0 15 C1.84 4.89, 6.15 0.96, 15 0 M0 15 C-0.39 4.42, 4.85 -2.17, 15 0" stroke="#000000" stroke-width="1" fill="none"></path></g><g transform="translate(659.5770778738636 15.25) rotate(0 48.5 25)"><text x="48.5" y="18" font-family="Virgil, Segoe UI Emoji" font-size="20px" fill="#000000" text-anchor="middle" style="white-space: pre;" direction="ltr">Initialize </text><text x="48.5" y="43" font-family="Virgil, Segoe UI Emoji" font-size="20px" fill="#000000" text-anchor="middle" style="white-space: pre;" direction="ltr">agent</text></g><g stroke-linecap="round" transform="translate(832.8270778738636 10) rotate(0 67.5 30)"><path d="M15 0 M15 0 C36.35 0.35, 59.64 0.98, 120 0 M15 0 C38.28 0.26, 61.27 -0.32, 120 0 M120 0 C129.12 0.88, 136.24 3.42, 135 15 M120 0 C131.13 1.18, 137.16 6.68, 135 15 M135 15 C136.63 25.78, 135.94 37.73, 135 45 M135 15 C133.98 23.45, 134.59 31.95, 135 45 M135 45 C135.26 53.36, 131.31 58.29, 120 60 M135 45 C136.01 54.64, 130.02 62.06, 120 60 M120 60 C83.66 60.19, 46.88 61.54, 15 60 M120 60 C83.7 59.5, 49.35 59.12, 15 60 M15 60 C5.57 60.19, 1.54 54.25, 0 45 M15 60 C5.59 60.3, 1.43 53.53, 0 45 M0 45 C1.08 39.82, -1.66 33.19, 0 15 M0 45 C-0.7 38.61, 0.2 32.81, 0 15 M0 15 C1.18 6.37, 3.83 -1.26, 15 0 M0 15 C-0.44 5.63, 6.37 -1.87, 15 0" stroke="#000000" stroke-width="1" fill="none"></path></g><g transform="translate(851.8270778738636 15) rotate(0 48.5 25)"><text x="48.5" y="18" font-family="Virgil, Segoe UI Emoji" font-size="20px" fill="#000000" text-anchor="middle" style="white-space: pre;" direction="ltr">Initialize </text><text x="48.5" y="43" font-family="Virgil, Segoe UI Emoji" font-size="20px" fill="#000000" text-anchor="middle" style="white-space: pre;" direction="ltr">memory</text></g><g stroke-linecap="round" transform="translate(475.4189534445484 212.08844540386224) rotate(0 234.375 178.69642857142856)"><path d="M-0.84 0.1 C186.37 -2.07, 371.52 -2.12, 469.53 0.28 M469.74 -0.84 C469.12 95.55, 468.53 189.91, 469.01 356.67 M469.54 358.01 C359.88 358.33, 251.33 358.6, -0.15 357.48 M0.68 358.61 C-0.39 260.2, 1.81 163.98, -0.94 1.18" stroke="#000000" stroke-width="1.5" fill="none" stroke-dasharray="1.5 7"></path></g><g transform="translate(478.4189534445484 176.08844540386224) rotate(0 69.5 12.5)"><text x="69.5" y="18" font-family="Virgil, Segoe UI Emoji" font-size="20px" fill="#000000" text-anchor="middle" style="white-space: pre;" direction="ltr">Rollout Phase</text></g><g stroke-linecap="round" transform="translate(482.58778767631793 766.831292472037) rotate(0 325.04407943578315 332.1088530066818)"><path d="M-0.25 -0.64 C224.01 -0.68, 446.44 -1.2, 650.6 0.23 M650.11 -0.15 C649.15 261.16, 649.59 522.81, 649.45 663.8 M650.44 663.9 C421.51 663.31, 191.42 662.95, 0.21 663.45 M0.58 663.69 C0.88 463.96, 1.18 264.46, 0.79 0.19" stroke="#000000" stroke-width="1.5" fill="none" stroke-dasharray="1.5 7"></path></g><g transform="translate(486.7728285077952 728.132331818734) rotate(0 74.5 13)"><text x="74.5" y="18" font-family="Virgil, Segoe UI Emoji" font-size="20.11878247958426px" fill="#000000" text-anchor="middle" style="white-space: pre;" direction="ltr">Learning Phase</text></g><g stroke-linecap="round"><g transform="translate(705.3270778738636 73.625) rotate(0 -0.7266435059103742 76.04333238351256)"><path d="M-0.83 0.16 C-0.97 25.69, -1.38 127.52, -1.47 152.88 M0.94 -0.8 C0.69 24.45, -1.89 126.19, -2.39 151.37" stroke="#000000" stroke-width="1" fill="none"></path></g><g transform="translate(705.3270778738636 73.625) rotate(0 -0.7266435059103742 76.04333238351256)"><path d="M-11.73 123.04 C-7.75 130.31, -6.3 136.84, -4.35 152.98 M-12.11 123.52 C-10.58 128.26, -7.34 134.81, -1.74 151.15" stroke="#000000" stroke-width="1" fill="none"></path></g><g transform="translate(705.3270778738636 73.625) rotate(0 -0.7266435059103742 76.04333238351256)"><path d="M8.78 123.5 C7.67 130.52, 4.02 136.93, -4.35 152.98 M8.4 123.99 C5.76 128.72, 4.83 135.17, -1.74 151.15" stroke="#000000" stroke-width="1" fill="none"></path></g></g><g stroke-linecap="round"><g transform="translate(515.3270778738636 69.61928616923478) rotate(0 94.64131089099408 49.671017537179324)"><path d="M0 0 C27.92 7.29, 135.95 27.19, 167.5 43.75 C199.05 60.31, 185.65 90.08, 189.28 99.34 M0 0 C27.92 7.29, 135.95 27.19, 167.5 43.75 C199.05 60.31, 185.65 90.08, 189.28 99.34" stroke="#000000" stroke-width="1" fill="none"></path></g></g><g stroke-linecap="round"><g transform="translate(703.615413486617 155.16115290047856) rotate(0 97.10583219362331 -42.64307645023928)"><path d="M0 0 C4.04 -6.3, -8.16 -23.57, 24.21 -37.79 C56.58 -52, 165.88 -77.37, 194.21 -85.29 M0 0 C4.04 -6.3, -8.16 -23.57, 24.21 -37.79 C56.58 -52, 165.88 -77.37, 194.21 -85.29" stroke="#000000" stroke-width="1" fill="none"></path></g></g><g stroke-linecap="round" transform="translate(680.1660949721961 1646.4981847072063) rotate(0 123.12499999999989 71.875)"><path d="M123.74 -0.99 C157.65 18.83, 187.34 35.87, 245.69 71.45 M124.56 0.86 C166.32 26.77, 210.06 52.05, 246.13 71.68 M245.47 70.94 C203.56 97.66, 159.52 120.18, 124.1 142.06 M245.9 72.89 C213.99 89.73, 182.15 108.35, 124.09 143.27 M122.16 144.84 C78.2 118.24, 30.34 88.48, -1.21 70.87 M124.41 143.34 C77.3 115.25, 29.27 88.16, 0.79 72.09 M0.2 71.59 C50.08 42.69, 99.57 12.08, 125.24 -0.15 M-0.78 71.65 C27.66 56.68, 54.52 40.32, 123.18 -0.34" stroke="#000000" stroke-width="1" fill="none"></path></g><g transform="translate(724.5833333333333 1689.9981847072063) rotate(0 82 25)"><text x="82" y="18" font-family="Virgil, Segoe UI Emoji" font-size="20px" fill="#000000" text-anchor="middle" style="white-space: pre;" direction="ltr">Repeat until</text><text x="82" y="43" font-family="Virgil, Segoe UI Emoji" font-size="20px" fill="#000000" text-anchor="middle" style="white-space: pre;" direction="ltr">total_timesteps</text></g><g stroke-linecap="round"><g transform="translate(804.324678111484 1793.1364207454935) rotate(0 -0.13024283217521315 25.32463555256288)"><path d="M0.69 0.03 C0.76 8.55, 0.24 42.03, 0.21 50.34 M-0.41 -1 C-0.51 7.76, -0.97 43.02, -0.95 51.65" stroke="#000000" stroke-width="1" fill="none"></path></g><g transform="translate(804.324678111484 1793.1364207454935) rotate(0 -0.13024283217521315 25.32463555256288)"><path d="M-9.43 27.05 C-7.97 34.23, -6.3 41.63, -0.07 51.69 M-9.51 27.08 C-6.86 34.47, -3.81 42.3, -0.52 50.82" stroke="#000000" stroke-width="1" fill="none"></path></g><g transform="translate(804.324678111484 1793.1364207454935) rotate(0 -0.13024283217521315 25.32463555256288)"><path d="M7.94 27.16 C4.53 34.41, 1.33 41.78, -0.07 51.69 M7.85 27.19 C4.98 34.42, 2.5 42.21, -0.52 50.82" stroke="#000000" stroke-width="1" fill="none"></path></g></g><g stroke-linecap="round" transform="translate(723.2459981387069 1851.495326234853) rotate(0 77 28.5)"><path d="M14.25 0 M14.25 0 C56.09 0.92, 97.54 1.08, 139.75 0 M14.25 0 C46.01 1.42, 76.7 0.77, 139.75 0 M139.75 0 C150.01 -1.09, 152.63 5.65, 154 14.25 M139.75 0 C147.99 1.36, 152.81 4.3, 154 14.25 M154 14.25 C152.68 20.18, 154.31 27.99, 154 42.75 M154 14.25 C154.25 23.08, 154.52 32.55, 154 42.75 M154 42.75 C153.2 52.78, 149.31 57.06, 139.75 57 M154 42.75 C154.5 53.47, 150.15 58.47, 139.75 57 M139.75 57 C93.81 56.99, 44.38 55.09, 14.25 57 M139.75 57 C99.78 56.43, 59.25 55.85, 14.25 57 M14.25 57 C3.19 57.58, 1.44 52.13, 0 42.75 M14.25 57 C3.39 56.7, 1.51 51.75, 0 42.75 M0 42.75 C1.64 34.29, 0.51 27.49, 0 14.25 M0 42.75 C0.66 35.9, 0.78 28.61, 0 14.25 M0 14.25 C0.57 3.04, 6.42 -1.98, 14.25 0 M0 14.25 C-1.3 6.09, 2.87 -1.52, 14.25 0" stroke="#000000" stroke-width="1" fill="none"></path></g><g transform="translate(762.7459981387069 1867.495326234853) rotate(0 37.5 12.5)"><text x="37.5" y="18" font-family="Virgil, Segoe UI Emoji" font-size="20px" fill="#000000" text-anchor="middle" style="white-space: pre;" direction="ltr">Finished</text></g><g stroke-linecap="round" transform="translate(571.6666666666667 1072.5906651520672) rotate(0 61.25 50.625)"><path d="M70.72 -0.17 C80.35 0.44, 92.16 6.44, 100.12 11.71 C108.09 16.99, 115 23.72, 118.49 31.48 C121.98 39.24, 122.7 49.74, 121.06 58.3 C119.43 66.85, 114.83 76.29, 108.69 82.81 C102.54 89.33, 93.54 94.33, 84.21 97.39 C74.87 100.46, 62.76 102.49, 52.69 101.18 C42.61 99.87, 31.79 94.8, 23.75 89.54 C15.71 84.28, 8.17 77.55, 4.44 69.6 C0.7 61.65, -0.32 50.45, 1.32 41.84 C2.96 33.22, 8.09 24.36, 14.29 17.91 C20.48 11.45, 28.51 5.99, 38.48 3.1 C48.44 0.21, 67.51 0.52, 74.06 0.56 C80.6 0.59, 77.79 2.32, 77.74 3.29 M64.79 0.8 C74.43 0.64, 85.59 4.9, 94.29 9.45 C103 14, 112.29 20.85, 117.02 28.1 C121.74 35.34, 123.61 44.5, 122.65 52.92 C121.68 61.35, 116.97 71.45, 111.21 78.65 C105.46 85.86, 96.75 92.53, 88.13 96.17 C79.5 99.82, 69.52 100.9, 59.46 100.53 C49.41 100.15, 36.55 98.28, 27.81 93.93 C19.07 89.57, 11.72 81.9, 7.03 74.39 C2.34 66.88, -0.73 57.42, -0.34 48.87 C0.04 40.33, 3.96 30.5, 9.33 23.12 C14.7 15.74, 22.77 8.29, 31.88 4.57 C40.99 0.85, 58.77 1.4, 64 0.78 C69.23 0.17, 63.3 -0.01, 63.26 0.89" stroke="#000000" stroke-width="1" fill="none"></path></g><g transform="translate(583.9166666666667 1085.7156651520672) rotate(0 49 37.5)"><text x="49" y="18" font-family="Virgil, Segoe UI Emoji" font-size="20px" fill="#000000" text-anchor="middle" style="white-space: pre;" direction="ltr">Clipped</text><text x="49" y="43" font-family="Virgil, Segoe UI Emoji" font-size="20px" fill="#000000" text-anchor="middle" style="white-space: pre;" direction="ltr">Surrogate</text><text x="49" y="68" font-family="Virgil, Segoe UI Emoji" font-size="20px" fill="#000000" text-anchor="middle" style="white-space: pre;" direction="ltr">Objective</text></g><g stroke-linecap="round" transform="translate(742.5239044510406 1068.6442840442542) rotate(0 50.625 43.125)"><path d="M67.57 1.52 C76.22 3.22, 85.35 9.24, 90.92 15.52 C96.48 21.81, 100.09 31.47, 100.97 39.24 C101.85 47.01, 100.38 55.26, 96.19 62.15 C92 69.03, 83.75 76.55, 75.85 80.54 C67.96 84.54, 57.8 86.39, 48.81 86.11 C39.82 85.82, 29.29 83.22, 21.89 78.82 C14.49 74.43, 7.75 66.99, 4.41 59.74 C1.07 52.5, 0.36 43.01, 1.86 35.34 C3.35 27.67, 7.38 19.39, 13.39 13.73 C19.4 8.08, 28.07 2.83, 37.92 1.42 C47.77 0, 65.83 4.21, 72.47 5.23 C79.11 6.26, 78.05 7.17, 77.77 7.57 M34.55 3.41 C42.94 0.58, 56.17 0.21, 64.97 2.17 C73.77 4.12, 81.34 9.52, 87.36 15.15 C93.39 20.78, 99.29 28.46, 101.11 35.95 C102.93 43.45, 102.03 52.72, 98.28 60.1 C94.53 67.49, 86.26 75.91, 78.59 80.26 C70.93 84.6, 61.22 86.12, 52.3 86.17 C43.37 86.22, 33.03 84.52, 25.06 80.56 C17.08 76.59, 8.3 69.61, 4.43 62.38 C0.56 55.15, 0.43 44.94, 1.84 37.16 C3.24 29.39, 7.08 21.62, 12.88 15.71 C18.68 9.81, 32.64 3.8, 36.62 1.71 C40.6 -0.39, 36.42 2.31, 36.75 3.15" stroke="#000000" stroke-width="1" fill="none"></path></g><g transform="translate(755.2916666666667 1088.8406651520672) rotate(0 42 25)"><text x="42" y="18" font-family="Virgil, Segoe UI Emoji" font-size="20px" fill="#000000" text-anchor="middle" style="white-space: pre;" direction="ltr">Entropy </text><text x="42" y="43" font-family="Virgil, Segoe UI Emoji" font-size="20px" fill="#000000" text-anchor="middle" style="white-space: pre;" direction="ltr">Bonus</text></g><g stroke-linecap="round" transform="translate(905.4166666666667 1070.7156651520672) rotate(0 54.625 48.125)"><path d="M68.68 1.69 C77.21 2.91, 86.85 7.86, 93.36 13.46 C99.86 19.05, 105.2 27.44, 107.73 35.26 C110.27 43.08, 110.93 52.78, 108.56 60.36 C106.19 67.94, 99.88 75.09, 93.52 80.73 C87.16 86.36, 78.94 91.91, 70.39 94.16 C61.84 96.41, 51.17 96.17, 42.24 94.21 C33.32 92.25, 23.42 88, 16.83 82.42 C10.24 76.84, 5.07 68.47, 2.71 60.71 C0.35 52.95, 0.65 43.59, 2.66 35.84 C4.67 28.08, 8.62 19.94, 14.77 14.21 C20.91 8.47, 30 3.4, 39.55 1.44 C49.1 -0.52, 65.87 1.85, 72.05 2.45 C78.24 3.06, 76.71 4.31, 76.64 5.07 M35.6 1.36 C43.78 -1.54, 56.16 0.04, 65.26 1.62 C74.35 3.19, 83.15 5.87, 90.17 10.8 C97.19 15.72, 104.2 23.37, 107.38 31.16 C110.56 38.96, 111.22 49.57, 109.26 57.58 C107.29 65.58, 101.92 72.96, 95.58 79.22 C89.25 85.47, 79.78 92.48, 71.24 95.11 C62.71 97.73, 53.05 96.5, 44.36 94.97 C35.67 93.43, 26.21 91.26, 19.09 85.91 C11.98 80.56, 4.51 70.59, 1.67 62.84 C-1.18 55.09, 0.02 47.08, 2.03 39.38 C4.04 31.68, 8.19 22.51, 13.75 16.63 C19.32 10.75, 31.6 6.38, 35.4 4.11 C39.21 1.85, 36.06 2.52, 36.59 3.04" stroke="#000000" stroke-width="1" fill="none"></path></g><g transform="translate(915.5416666666667 1081.3406651520672) rotate(0 44.5 37.5)"><text x="44.5" y="18" font-family="Virgil, Segoe UI Emoji" font-size="20px" fill="#000000" text-anchor="middle" style="white-space: pre;" direction="ltr">Value </text><text x="44.5" y="43" font-family="Virgil, Segoe UI Emoji" font-size="20px" fill="#000000" text-anchor="middle" style="white-space: pre;" direction="ltr">Function </text><text x="44.5" y="68" font-family="Virgil, Segoe UI Emoji" font-size="20px" fill="#000000" text-anchor="middle" style="white-space: pre;" direction="ltr">Loss</text></g><g stroke-linecap="round"><g transform="translate(682.0561787085471 1158.7435756093005) rotate(0 27.69845763736066 26.917392090285148)"><path d="M0.08 0.49 C9.38 9.38, 47.19 43.91, 56.73 52.51 M-1.33 -0.31 C7.7 8.88, 46 45.21, 55.68 54.14" stroke="#000000" stroke-width="1" fill="none"></path></g><g transform="translate(682.0561787085471 1158.7435756093005) rotate(0 27.69845763736066 26.917392090285148)"><path d="M28.92 42.02 C38.81 47.46, 48.64 49.68, 56.99 54.04 M27.53 41.95 C33.14 45.12, 38.98 46.88, 56.4 54.07" stroke="#000000" stroke-width="1" fill="none"></path></g><g transform="translate(682.0561787085471 1158.7435756093005) rotate(0 27.69845763736066 26.917392090285148)"><path d="M42.96 27.06 C47.4 38.2, 51.88 46.12, 56.99 54.04 M41.58 26.99 C44.18 33.34, 47.13 38.19, 56.4 54.07" stroke="#000000" stroke-width="1" fill="none"></path></g></g><g stroke-linecap="round" transform="translate(730.4166666666667 1192.5906651520672) rotate(0 68.125 42.5)"><path d="M84.36 1.36 C94.14 2.23, 104.36 6.31, 112.37 10.63 C120.38 14.95, 128.35 21.01, 132.42 27.29 C136.48 33.57, 138.18 41.78, 136.75 48.3 C135.32 54.82, 129.8 61.07, 123.81 66.42 C117.82 71.76, 110.04 77.43, 100.81 80.37 C91.58 83.31, 79.24 84.05, 68.44 84.06 C57.63 84.08, 45.23 83.13, 35.99 80.43 C26.75 77.73, 19.01 73.41, 13.01 67.84 C7 62.27, 1.41 53.57, -0.03 47.01 C-1.47 40.45, 0.63 34.52, 4.37 28.47 C8.1 22.42, 14.7 15.25, 22.39 10.72 C30.09 6.19, 38.96 2.69, 50.52 1.3 C62.09 -0.08, 83.89 1.87, 91.78 2.4 C99.66 2.93, 98.26 3.66, 97.82 4.48 M88.83 2.28 C98.59 3.74, 108.06 7.66, 115.57 12.27 C123.07 16.88, 130.32 23.75, 133.86 29.92 C137.4 36.09, 138.9 43.14, 136.79 49.29 C134.69 55.44, 127.83 61.72, 121.23 66.82 C114.62 71.93, 106.56 77.06, 97.15 79.91 C87.73 82.77, 75.21 84.02, 64.72 83.93 C54.23 83.83, 43.16 82.5, 34.2 79.36 C25.25 76.22, 16.66 70.88, 11.01 65.08 C5.35 59.28, 1.37 50.88, 0.27 44.54 C-0.84 38.2, 0.14 32.93, 4.37 27.05 C8.6 21.18, 17.47 13.75, 25.64 9.28 C33.8 4.8, 43.29 1.28, 53.37 0.19 C63.44 -0.89, 80.26 2.29, 86.07 2.77 C91.88 3.25, 88.47 2.44, 88.22 3.09" stroke="#000000" stroke-width="1" fill="none"></path></g><g transform="translate(748.5416666666667 1197.5906651520672) rotate(0 50 37.5)"><text x="50" y="18" font-family="Virgil, Segoe UI Emoji" font-size="20px" fill="#000000" text-anchor="middle" style="white-space: pre;" direction="ltr">Total </text><text x="50" y="43" font-family="Virgil, Segoe UI Emoji" font-size="20px" fill="#000000" text-anchor="middle" style="white-space: pre;" direction="ltr">Objective </text><text x="50" y="68" font-family="Virgil, Segoe UI Emoji" font-size="20px" fill="#000000" text-anchor="middle" style="white-space: pre;" direction="ltr">Function</text></g><g stroke-linecap="round"><g transform="translate(797.9166666666667 1160.0906651520672) rotate(0 -0.26005553161132866 16.56728099698205)"><path d="M0.37 0.43 C0.4 5.93, 0.09 26.66, -0.13 32.17 M-0.89 -0.4 C-0.9 5.36, -0.37 28.2, -0.49 33.53" stroke="#000000" stroke-width="1" fill="none"></path></g><g transform="translate(797.9166666666667 1160.0906651520672) rotate(0 -0.26005553161132866 16.56728099698205)"><path d="M-5.54 19.79 C-5.13 22.83, -1.84 25.35, -1.53 34.11 M-6.68 17.73 C-3.57 24.34, -1.97 29.69, -0.8 33.57" stroke="#000000" stroke-width="1" fill="none"></path></g><g transform="translate(797.9166666666667 1160.0906651520672) rotate(0 -0.26005553161132866 16.56728099698205)"><path d="M5.58 19.74 C2.93 22.83, 3.14 25.36, -1.53 34.11 M4.44 17.68 C3.12 24.23, 0.29 29.6, -0.8 33.57" stroke="#000000" stroke-width="1" fill="none"></path></g></g><g stroke-linecap="round"><g transform="translate(922.9166666666667 1157.5906651520672) rotate(0 -34.28699077942417 26.783086419934307)"><path d="M-0.82 0.61 C-12.26 9.38, -58.21 45.15, -69.52 53.68 M0.95 -0.12 C-10.02 8.87, -55.49 43.37, -67.21 52.18" stroke="#000000" stroke-width="1" fill="none"></path></g><g transform="translate(922.9166666666667 1157.5906651520672) rotate(0 -34.28699077942417 26.783086419934307)"><path d="M-49.9 25.71 C-52.37 32.63, -59.18 37.03, -68.6 52.26 M-51.55 26.6 C-56.11 34.77, -62.03 43.25, -67.34 51.64" stroke="#000000" stroke-width="1" fill="none"></path></g><g transform="translate(922.9166666666667 1157.5906651520672) rotate(0 -34.28699077942417 26.783086419934307)"><path d="M-37.52 42.07 C-42.9 45.25, -52.48 45.99, -68.6 52.26 M-39.17 42.96 C-47.35 46.03, -57.06 49.51, -67.34 51.64" stroke="#000000" stroke-width="1" fill="none"></path></g></g><g stroke-linecap="round" transform="translate(682.9166666666667 1322.5906651520672) rotate(0 121.5 22.5)"><path d="M-1.52 -0.92 C83.17 1.08, 168.58 -0.73, 243.13 1.62 M-0.71 0.58 C63.26 1.51, 126.95 1.01, 242.37 -0.63 M242.91 -1.76 C242.87 16.61, 244.05 31.45, 242.21 43.72 M243.16 0.5 C242.31 14.63, 242.13 28.4, 242.6 44.56 M244.27 43.73 C149.16 47.64, 57.72 47.46, -0.48 46.05 M242.37 45.42 C167.81 45.97, 92.46 46.23, -0.68 45.61 M-0.42 44.94 C-0.9 30.5, -0.95 13.78, -1.34 -0.7 M0.51 44.1 C0.86 29.92, 1.15 13.92, -0.71 0.36" stroke="#000000" stroke-width="1" fill="none"></path></g><g transform="translate(696.4166666666667 1332.5906651520672) rotate(0 108 12.5)"><text x="108" y="18" font-family="Virgil, Segoe UI Emoji" font-size="20px" fill="#000000" text-anchor="middle" style="white-space: pre;" direction="ltr">Gradient Ascent step</text></g><g stroke-linecap="round"><g transform="translate(801.6666666666667 1278.8406651520672) rotate(0 0.4942635450419175 20.88558271774093)"><path d="M0.51 0.53 C0.75 7.67, 1.6 35.37, 1.67 42.01 M-0.68 -0.24 C-0.59 6.63, 0.83 33.37, 0.94 40.28" stroke="#000000" stroke-width="1" fill="none"></path></g><g transform="translate(801.6666666666667 1278.8406651520672) rotate(0 0.4942635450419175 20.88558271774093)"><path d="M-5.93 21.86 C-3.18 26.73, -3.39 33.86, -0.79 39.44 M-6.48 21.23 C-4.74 28.7, -0.25 34.55, 1.81 40.12" stroke="#000000" stroke-width="1" fill="none"></path></g><g transform="translate(801.6666666666667 1278.8406651520672) rotate(0 0.4942635450419175 20.88558271774093)"><path d="M8.17 21.35 C6.38 26.44, 1.63 33.74, -0.79 39.44 M7.62 20.72 C4.22 28.28, 3.57 34.31, 1.81 40.12" stroke="#000000" stroke-width="1" fill="none"></path></g></g><g stroke-linecap="round"><g transform="translate(805.6690255405451 1370.6019415687933) rotate(0 -0.6399989109378339 48.64476852217285)"><path d="M0.3 -0.05 C0.17 15.92, -0.63 80.8, -0.62 96.92 M-1.01 -1.12 C-1.3 15.55, -1.72 81.93, -1.53 98.41" stroke="#000000" stroke-width="1" fill="none"></path></g><g transform="translate(805.6690255405451 1370.6019415687933) rotate(0 -0.6399989109378339 48.64476852217285)"><path d="M-11.9 70.37 C-8.47 80.81, -5.73 88.74, -0.38 98.95 M-12.8 69.26 C-8 80.48, -4.87 91.34, -2.42 98.47" stroke="#000000" stroke-width="1" fill="none"></path></g><g transform="translate(805.6690255405451 1370.6019415687933) rotate(0 -0.6399989109378339 48.64476852217285)"><path d="M8.62 70.35 C5.62 80.84, 1.94 88.78, -0.38 98.95 M7.72 69.24 C5.2 80.35, 1.01 91.22, -2.42 98.47" stroke="#000000" stroke-width="1" fill="none"></path></g></g><g stroke-linecap="round" transform="translate(695.5827616388631 1473.086091596304) rotate(0 108.5 63.5)"><path d="M110.28 0.18 C140.02 15.75, 168.2 35.69, 217.98 64.05 M108.91 -0.45 C144.73 20.3, 178.87 41.66, 216.75 63.41 M216.22 64.03 C185.08 81.92, 155.67 99.63, 110.14 125.72 M217.76 63.54 C183.99 83, 153.2 102.6, 109.04 126.62 M109.32 128.45 C78.9 108.56, 51.15 94.09, 0.3 63.22 M108.03 126.71 C81.83 111.14, 53.33 93.32, -0.95 64.89 M1.11 65.42 C27.08 49.45, 50.83 32.57, 107.39 0 M0.77 64.42 C25.99 47.76, 54.12 31.62, 109.52 -0.29" stroke="#000000" stroke-width="1" fill="none"></path></g><g transform="translate(718.5827616388631 1524.086091596304) rotate(0 85.5 12.5)"><text x="85.5" y="18" font-family="Virgil, Segoe UI Emoji" font-size="20px" fill="#000000" text-anchor="middle" style="white-space: pre;" direction="ltr">x update_epochs</text></g><g stroke-linecap="round" transform="translate(10 425.9239984854005) rotate(0 176.25 185.00000000000006)"><path d="M0.72 0.25 C86.3 1.26, 171.82 0.08, 352.83 -0.3 M0.56 -0.56 C88.34 -1.33, 177.52 -0.34, 351.99 0.2 M352.63 -0.26 C352.36 88.32, 352.29 176.1, 353.47 371.16 M353.02 -0.12 C350.89 114.69, 350.2 227.78, 353.04 370.23 M353.6 369.29 C250.1 369.62, 145.48 370.7, -0.16 370.56 M352.47 370.49 C269.92 370.66, 188.64 371.2, -0.19 370.21 M-0.19 369.94 C1.99 290.52, 1.8 212.93, 1.11 -1.09 M0.07 370.27 C-0.92 259.83, -1.33 147.87, 0.43 -0.42" stroke="#000000" stroke-width="1" fill="none"></path></g><g transform="translate(15 390.6739984854005) rotate(0 35 12.5)"><text x="35" y="18" font-family="Virgil, Segoe UI Emoji" font-size="20px" fill="#000000" text-anchor="middle" style="white-space: pre;" direction="ltr">Memory</text></g><g stroke-linecap="round" transform="translate(28.75 477.1739984854005) rotate(0 156.875 85)"><path d="M-0.25 -1.14 C92.28 0.32, 181.59 0.1, 314.26 -0.4 M-0.2 0.52 C66.7 1.16, 134.07 0.03, 313.82 -0.59 M313.87 1.15 C312.24 50.63, 313.47 104.8, 314.95 171.59 M313.5 -0.96 C312.81 52.12, 313.97 103.94, 313.14 170.22 M312.48 170.17 C201.14 171.88, 88.91 171.18, -1.09 170.79 M314.46 170.21 C203.88 168.66, 93.44 168.99, -0.62 169.85 M1.34 169.15 C2.01 106.8, -0.98 42.64, 1.22 -1.17 M-0.83 170.3 C-0.3 105.08, 0.02 39.01, 0.2 0.95" stroke="#efd87a" stroke-width="4" fill="none"></path></g><g stroke-linecap="round" transform="translate(623.5666195794172 594.1773948599251) rotate(0 82.5 51.5)"><path d="M81.74 -0.91 C103.17 14.98, 126.84 27.63, 163.92 51.72 M83.64 0.65 C102.88 14.28, 124.51 27.37, 164.18 52.49 M164.18 50.37 C139.45 68.09, 111.26 85.15, 84.59 103.72 M165.63 51.41 C140.63 66, 116.36 82.16, 83.21 102.75 M82.88 103.68 C51.82 82.95, 23.48 65.68, -1.91 50.19 M83.35 103.65 C60.43 89.29, 38.74 75.63, 0.63 52.3 M0.48 50.58 C24.27 37.94, 45.59 20.9, 84.01 1.58 M0.15 52.85 C33.18 32.22, 63.11 11.49, 82.21 -0.47" stroke="#000000" stroke-width="1" fill="none"></path></g><g transform="translate(642.5666195794172 633.1773948599251) rotate(0 63.5 12.5)"><text x="63.5" y="18" font-family="Virgil, Segoe UI Emoji" font-size="20px" fill="#000000" text-anchor="middle" style="white-space: pre;" direction="ltr">x num_steps</text></g><g stroke-linecap="round"><g transform="translate(792.5844767222741 671.958579103965) rotate(0 136.91790468283546 -177.63862958810847)"><path d="M-0.58 -28 C37.25 -28.43, 180.92 -23.04, 226.11 -29.86 C271.31 -36.68, 263.99 -25.22, 270.61 -68.92 C277.24 -112.61, 274.93 -249.06, 265.87 -292.02 C256.8 -334.98, 260.32 -320.61, 216.2 -326.68 C172.08 -332.75, 36.64 -328.24, 1.16 -328.43 M1.31 -28.84 C39.59 -28.59, 183.52 -21.48, 228.28 -28.5 C273.03 -35.52, 263.52 -27.23, 269.84 -70.95 C276.17 -114.67, 275.4 -248.35, 266.21 -290.82 C257.02 -333.3, 258.72 -319.39, 214.68 -325.8 C170.64 -332.22, 37.61 -328.82, 1.96 -329.3" stroke="#000000" stroke-width="1" fill="none"></path></g><g transform="translate(792.5844767222741 671.958579103965) rotate(0 136.91790468283546 -177.63862958810847)"><path d="M30.75 -341.44 C23.33 -337.51, 18.56 -334.86, 2.27 -329.47 M30.93 -338.94 C18.77 -335.78, 8.46 -332.45, 2.74 -329.5" stroke="#000000" stroke-width="1" fill="none"></path></g><g transform="translate(792.5844767222741 671.958579103965) rotate(0 136.91790468283546 -177.63862958810847)"><path d="M30.84 -320.92 C23.21 -321.59, 18.42 -323.54, 2.27 -329.47 M31.03 -318.42 C19.03 -323, 8.68 -327.41, 2.74 -329.5" stroke="#000000" stroke-width="1" fill="none"></path></g></g><g stroke-linecap="round" transform="translate(629.2760963016913 313.21344540386224) rotate(0 77 30)"><path d="M-1.52 1.99 C41.88 0.23, 83.71 -0.55, 153.03 -1.61 M0.1 -0.86 C51.66 0.07, 102.48 -0.28, 153.49 -0.32 M155.48 1.65 C153.85 11.67, 153.94 27.28, 155.28 60.33 M154.54 -0.79 C155.05 21.97, 154.34 45.18, 154.41 60.42 M154.73 60.65 C108.11 60.06, 62.92 61.46, -1.06 58.04 M153.29 60.08 C106.56 59.28, 59.23 58.05, 0.86 59.61 M1.76 59.52 C0.54 41.83, -1.03 28.22, 1.42 -0.18 M-0.4 60.2 C0.51 42.63, -0.28 25.46, -0.52 0.2" stroke="#000000" stroke-width="1" fill="none"></path></g><g transform="translate(649.2760963016913 318.21344540386224) rotate(0 57 25)"><text x="57" y="18" font-family="Virgil, Segoe UI Emoji" font-size="20px" fill="#000000" text-anchor="middle" style="white-space: pre;" direction="ltr">Get agent </text><text x="57" y="43" font-family="Virgil, Segoe UI Emoji" font-size="20px" fill="#000000" text-anchor="middle" style="white-space: pre;" direction="ltr">action</text></g><g stroke-linecap="round" transform="translate(627.2760963016913 389.71344540386224) rotate(0 77 34.5)"><path d="M-1.16 1.08 C45.14 -1.45, 89.13 -0.9, 155.78 1.72 M0.74 -0.11 C41.6 -0.58, 81.33 -0.62, 153.26 0.44 M152.2 -1.04 C153.22 17.8, 152.35 39.77, 152.5 68.86 M154.53 -0.57 C154.23 20.41, 154.26 39.73, 154.8 68.18 M154.96 67.23 C108.38 69.2, 65.85 68.19, 0.06 68.17 M154.15 68.75 C113.64 70.27, 72.35 70.59, 0.17 68.75 M1.34 68.34 C1.98 40.92, 2.07 18.53, -1.15 1.59 M0.93 68.91 C0.89 45.47, 0.36 20.73, 0.98 0.84" stroke="#000000" stroke-width="1" fill="none"></path></g><g transform="translate(649.2760963016913 399.21344540386224) rotate(0 55 25)"><text x="55" y="18" font-family="Virgil, Segoe UI Emoji" font-size="20px" fill="#000000" text-anchor="middle" style="white-space: pre;" direction="ltr">Act on </text><text x="55" y="43" font-family="Virgil, Segoe UI Emoji" font-size="20px" fill="#000000" text-anchor="middle" style="white-space: pre;" direction="ltr">environment</text></g><g stroke-linecap="round" transform="translate(195.03409090909088 545.6512712126732) rotate(0 68.34090909090907 18.738636363636374)"><path d="M-0.84 0.26 L135.98 -0.22 L136.87 37.91 L-1.97 38.32" stroke="none" stroke-width="0" fill="#efd87a"></path><path d="M-0.68 0.23 C39.19 -1.75, 77.63 0.66, 135.33 0.42 M-0.13 -0.53 C29.05 0.1, 60.25 0.57, 137.19 0.65 M137.99 -0.71 C138.55 10.56, 138.13 23.24, 137.03 37.3 M136.11 -0.03 C136.36 12.06, 136.37 23.11, 135.76 37.09 M135.88 36.05 C81.26 36.61, 26.37 35.85, -1.12 36.03 M136.02 37.21 C97.48 38.56, 58.15 37.36, 0.64 36.54 M0 36.32 C-2.11 24.06, 1.59 11.11, -0.63 1.96 M-0.69 36.61 C-0.27 23.76, 0.76 9.46, -0.29 0.99" stroke="transparent" stroke-width="1" fill="none"></path></g><g transform="translate(229.92613636363637 552.8015084754105) rotate(0 34 10.5)"><text x="34" y="15" font-family="Virgil, Segoe UI Emoji" font-size="17.030719280719268px" fill="#000000" text-anchor="middle" style="white-space: pre;" direction="ltr">logprobs</text></g><g stroke-linecap="round" transform="translate(41.04545454545456 597.2421803035822) rotate(0 68.3409090909091 18.738636363636374)"><path d="M1.29 -0.31 L136.51 -0.96 L134.77 37.73 L1.87 37.6" stroke="none" stroke-width="0" fill="#efd87a"></path><path d="M1.68 0.37 C28.61 0.77, 59.98 2.05, 134.77 1.36 M-0.19 0.1 C36.65 1.56, 71.99 2.07, 136.81 -0.68 M135.63 -0.77 C136.92 10.28, 136.9 17.24, 136.04 37.71 M136.63 0.34 C136.77 6.63, 136.06 15.78, 135.76 36.55 M135.77 37.93 C93.79 39.91, 52.82 39.43, 1.8 37.62 M137.08 38.2 C81.54 37.59, 28.98 38.47, 0.53 37.41 M-1.17 37.23 C2.02 24.21, -0.93 15.3, 1.8 0.8 M0.87 36.52 C0.07 28.8, 0.94 19.93, -0.27 0.09" stroke="transparent" stroke-width="1" fill="none"></path></g><g transform="translate(76.4375 604.3924175663196) rotate(0 33.5 10.5)"><text x="33.5" y="15" font-family="Virgil, Segoe UI Emoji" font-size="17.030719280719268px" fill="#000000" text-anchor="middle" style="white-space: pre;" direction="ltr">rewards</text></g><g stroke-linecap="round" transform="translate(193.31818181818176 491.5489984854005) rotate(0 68.34090909090912 18.738636363636374)"><path d="M0.64 -0.54 L138.5 -0.74 L135.37 39.38 L0.59 36.82" stroke="none" stroke-width="0" fill="#efd87a"></path><path d="M-0.51 -0.8 C38.98 0.41, 79.61 0.5, 135.92 0.44 M-0.7 0.33 C44.2 -1.51, 87.89 0.06, 136.84 -0.28 M136.65 1.02 C138.1 7.29, 138.47 16.61, 135.05 35.85 M136.28 0.8 C136.57 7.82, 137.13 16.11, 136.99 37.04 M137.92 37.99 C85.31 37.81, 33.54 37.36, -1.16 38.55 M135.7 37.59 C96.73 38.12, 57.15 39.73, 0.19 38.28 M0.83 37.42 C0.03 26.85, -1.78 16.93, -0.61 -0.57 M-0.09 37.45 C-1.21 29.95, 0.12 22.4, 0.44 0.17" stroke="transparent" stroke-width="1" fill="none"></path></g><g transform="translate(231.21022727272737 498.69923574813777) rotate(0 31 10.5)"><text x="31" y="15" font-family="Virgil, Segoe UI Emoji" font-size="17.030719280719268px" fill="#000000" text-anchor="middle" style="white-space: pre;" direction="ltr">actions</text></g><g stroke-linecap="round" transform="translate(44.04545454545456 490.9239984854005) rotate(0 68.3409090909091 18.738636363636374)"><path d="M1.39 0.77 L137.11 -0.16 L136.45 35.78 L-0.16 37.84" stroke="none" stroke-width="0" fill="#efd87a"></path><path d="M1.02 1.42 C40.29 1.82, 82.6 -1.61, 135.06 -1.48 M0.8 -0.29 C46.82 0.82, 94.11 0.86, 136.25 0.83 M137.2 1.03 C136.85 16.25, 136.39 28.04, 137.75 37.35 M136.8 0.18 C136.39 12.56, 138 23.82, 137.49 37.24 M136.62 37.68 C88.89 36.44, 41.82 37.44, -0.57 35.66 M136.65 36.51 C87.19 37.72, 37.69 37.79, 0.17 37.8 M-1.31 39.38 C0.24 26.59, 0.32 16.68, -1.45 -0.65 M0.46 37.92 C0.06 25.23, -1.07 12.13, -0.25 0.11" stroke="transparent" stroke-width="1" fill="none"></path></g><g transform="translate(98.43750000000006 498.07423574813777) rotate(0 14.5 10.5)"><text x="14.5" y="15" font-family="Virgil, Segoe UI Emoji" font-size="17.030719280719268px" fill="#000000" text-anchor="middle" style="white-space: pre;" direction="ltr">obs</text></g><g stroke-linecap="round" transform="translate(43.875 544.7989984854005) rotate(0 68.34090909090912 18.738636363636374)"><path d="M1.22 -1.86 L138.41 1.76 L137.69 36.82 L-1.33 37.46" stroke="none" stroke-width="0" fill="#efd87a"></path><path d="M1.67 0.75 C32.02 0.18, 62.94 1.15, 135.18 1.99 M0.39 0.21 C37.51 -1.07, 74.34 -1.03, 136.87 -0.7 M136.43 1.19 C137.68 9.11, 136.93 18.12, 138.58 38.25 M136.98 -0.97 C136.13 11.54, 136.97 25.33, 136.74 36.97 M136.42 37.67 C96.78 35.31, 56.2 34.46, -0.06 37.54 M135.99 37.57 C106.75 37.17, 74.76 37.56, 0.47 38.35 M0.89 37.57 C1.01 27.97, -2 21.72, 1.89 -0.97 M0.93 37.23 C1.22 24.6, 0.92 13.75, 0.33 -0.76" stroke="transparent" stroke-width="1" fill="none"></path></g><g transform="translate(88.76704545454544 551.9492357481378) rotate(0 24 10.5)"><text x="24" y="15" font-family="Virgil, Segoe UI Emoji" font-size="17.030719280719268px" fill="#000000" text-anchor="middle" style="white-space: pre;" direction="ltr">dones</text></g><g stroke-linecap="round" transform="translate(193.75 598.1512712126732) rotate(0 68.34090909090912 18.738636363636374)"><path d="M-1.22 0.33 L137.38 1.38 L136.49 36.64 L-1.57 38.28" stroke="none" stroke-width="0" fill="#efd87a"></path><path d="M0.32 0.78 C30.23 -1.99, 62.31 -2.55, 137.96 -1.36 M-0.83 -0.94 C28.14 0.87, 54.09 1.24, 136.99 0.07 M136 -1.05 C135.61 15.25, 136.96 28.27, 136.87 36.32 M136.08 0.69 C137.78 11.43, 137.68 24.48, 136.71 37.18 M137.33 35.52 C106.83 40.5, 79.42 38.76, 0.37 35.67 M136.49 37.89 C104.41 36.19, 73.01 36.08, 0.75 38.39 M-1.01 36.71 C0.28 25.93, 0.47 13.74, -0.13 1.2 M-0.07 37.19 C-0.74 26.78, -0.94 13.91, 0.19 -0.58" stroke="transparent" stroke-width="1" fill="none"></path></g><g transform="translate(235.1420454545455 605.3015084754105) rotate(0 27.5 10.5)"><text x="27.5" y="15" font-family="Virgil, Segoe UI Emoji" font-size="17.030719280719268px" fill="#000000" text-anchor="middle" style="white-space: pre;" direction="ltr">values</text></g><g transform="translate(31 441.9239984854005) rotate(0 79 12.5)"><text x="79" y="18" font-family="Virgil, Segoe UI Emoji" font-size="20px" fill="#000000" text-anchor="middle" style="white-space: pre;" direction="ltr">Saved Variables</text></g><g stroke-linecap="round" transform="translate(33.95833333333337 712.3823318187339) rotate(0 79.58333333333331 31.25)"><path d="M-0.52 1.68 C36.04 2.26, 72.14 0.14, 159.13 0.77 M-0.03 -0.57 C55.52 -0.51, 111.5 0.03, 159.55 -0.63 M157.31 -1.5 C158.47 14.69, 159.79 27.31, 159.98 62.95 M159.68 0.39 C160.27 17.27, 158.42 33.92, 159.53 61.58 M158.06 61.38 C124.44 62.25, 92.72 63.97, -0.54 61.94 M158.22 63.49 C125.8 61.27, 90.88 61.26, -0.43 61.61 M-0.39 62.36 C-0.44 39.61, -0.85 14.67, -1.58 1.8 M0.44 63.11 C0.19 49.41, 0.22 35.36, -0.09 -0.27" stroke="#efd87a" stroke-width="4" fill="none"></path></g><g stroke-linecap="round" transform="translate(45.80113636363643 723.8842257581277) rotate(0 68.3409090909091 18.738636363636374)"><path d="M0.58 1.92 L135.74 1.3 L135.33 38.29 L-1.14 37.68" stroke="none" stroke-width="0" fill="#efd87a"></path><path d="M-0.47 1.52 C50.21 0.29, 95.68 2.46, 135.84 -0.96 M0.19 0.41 C36.95 0.95, 71.62 0.45, 137.59 -0.42 M137.95 -1.23 C138.26 10.68, 138.51 19.8, 136.13 36.54 M137.08 0.27 C137.65 13.62, 136.19 26.79, 136.37 37.5 M134.94 39.36 C103.63 37.12, 70.49 38.29, 1.74 37.95 M136.95 38.28 C95.64 36.46, 56.42 36.43, -0.6 36.62 M-1.41 38.71 C0.35 23.6, 0.3 14.01, 1.08 -0.69 M-0.78 37.27 C-0.61 25.77, 0.35 13.44, 0.84 0.77" stroke="transparent" stroke-width="1" fill="none"></path></g><g transform="translate(65.19318181818181 731.034463020865) rotate(0 49.49999999999997 10.5)"><text x="49.5" y="15" font-family="Virgil, Segoe UI Emoji" font-size="17.030719280719268px" fill="#000000" text-anchor="middle" style="white-space: pre;" direction="ltr">advantages</text></g><g transform="translate(29.25 669.6739984854005) rotate(0 102 12.5)"><text x="102" y="18" font-family="Virgil, Segoe UI Emoji" font-size="20px" fill="#000000" text-anchor="middle" style="white-space: pre;" direction="ltr">Calculated Variables</text></g><g stroke-linecap="round"><g transform="translate(268.75 652.1739984854005) rotate(0 -34.596506303176284 41.83726204329167)"><path d="M0.33 0.92 C-0.91 11.36, 3.22 49.8, -8.42 63.53 C-20.06 77.27, -59.36 79.98, -69.52 83.32 M-0.96 0.35 C-2.24 10.4, 1.81 48.44, -9.2 61.95 C-20.21 75.46, -56.99 78.14, -67.03 81.41" stroke="#000000" stroke-width="1" fill="none"></path></g><g transform="translate(268.75 652.1739984854005) rotate(0 -34.596506303176284 41.83726204329167)"><path d="M-39.99 66.16 C-45.23 67.84, -51.14 71.52, -65.24 80.47 M-41.98 64.62 C-50.25 70.84, -59.51 76.27, -66.44 82.03" stroke="#000000" stroke-width="1" fill="none"></path></g><g transform="translate(268.75 652.1739984854005) rotate(0 -34.596506303176284 41.83726204329167)"><path d="M-35.81 86.25 C-42.11 83.57, -48.92 82.88, -65.24 80.47 M-37.8 84.71 C-47.43 83.82, -58.16 82.18, -66.44 82.03" stroke="#000000" stroke-width="1" fill="none"></path></g></g><g stroke-linecap="round"><g transform="translate(708.4302865119826 696.253060728895) rotate(0 -0.9798117687530521 65.8447368452201)"><path d="M0.42 -0.92 C0.23 20.89, -1.27 109.48, -1.85 131.53 M-0.82 1.22 C-1.04 23.09, -1.83 110.79, -2.38 132.61" stroke="#000000" stroke-width="1" fill="none"></path></g><g transform="translate(708.4302865119826 696.253060728895) rotate(0 -0.9798117687530521 65.8447368452201)"><path d="M-13.72 105.59 C-11.1 110.35, -8.99 118.49, -0.89 131.76 M-12.11 104.18 C-8.94 113.08, -7.2 120.69, -3.34 132.06" stroke="#000000" stroke-width="1" fill="none"></path></g><g transform="translate(708.4302865119826 696.253060728895) rotate(0 -0.9798117687530521 65.8447368452201)"><path d="M6.8 105.92 C4.44 110.67, 1.56 118.73, -0.89 131.76 M8.41 104.51 C5.7 113.2, 1.55 120.71, -3.34 132.06" stroke="#000000" stroke-width="1" fill="none"></path></g></g><g stroke-linecap="round"><g transform="translate(692.0608511165669 1599.349938643249) rotate(0 -147.3009392818941 -388.3304523675869)"><path d="M0.33 -60.24 C-41.49 -60.52, -203.54 -50.52, -252.04 -60.79 C-300.53 -71.06, -283.88 -84.23, -290.66 -121.85 C-297.44 -159.48, -292.45 -235.96, -292.71 -286.52 C-292.98 -337.08, -292.92 -364.33, -292.25 -425.21 C-291.58 -486.1, -296.56 -604.58, -288.68 -651.85 C-280.81 -699.13, -279.56 -697.21, -245.01 -708.88 C-210.46 -720.54, -108.65 -719.65, -81.38 -721.84 M-0.96 -57.93 C-42.76 -58.16, -204.17 -48.84, -252.53 -59.86 C-300.9 -70.87, -284.49 -85.86, -291.16 -124.01 C-297.83 -162.16, -292.16 -238.63, -292.56 -288.75 C-292.96 -338.87, -293.93 -364.14, -293.56 -424.72 C-293.2 -485.31, -298.51 -605.22, -290.34 -652.27 C-282.17 -699.32, -279.22 -695.36, -244.54 -707.01 C-209.85 -718.66, -109.18 -719.44, -82.25 -722.2" stroke="#000000" stroke-width="1" fill="none"></path></g><g transform="translate(692.0608511165669 1599.349938643249) rotate(0 -147.3009392818941 -388.3304523675869)"><path d="M-110.79 -708.92 C-106.12 -712, -97.97 -715.57, -81.21 -721.71 M-110.08 -711.06 C-100.96 -714.39, -92.27 -718.31, -81.33 -722.75" stroke="#000000" stroke-width="1" fill="none"></path></g><g transform="translate(692.0608511165669 1599.349938643249) rotate(0 -147.3009392818941 -388.3304523675869)"><path d="M-111.95 -729.4 C-106.95 -728.29, -98.56 -727.66, -81.21 -721.71 M-111.24 -731.55 C-101.57 -728.41, -92.51 -725.86, -81.33 -722.75" stroke="#000000" stroke-width="1" fill="none"></path></g></g><g stroke-linecap="round" transform="translate(882.9090909090905 864.6853621217641) rotate(0 68.34090909090912 18.738636363636374)"><path d="M0.6 -1.18 L137.09 1.14 L136.2 39.21 L1.71 38.69" stroke="none" stroke-width="0" fill="#b8c8ff"></path><path d="M-1.98 0.72 C33.89 -0.16, 69.9 0.57, 135.23 0.67 M-0.61 -0.42 C46.31 0.13, 93.6 0.77, 136.05 -0.03 M138.11 1.78 C138.92 14.63, 137.75 26.9, 136.88 37.63 M135.9 -0.61 C137.46 11.06, 136.75 22.23, 136.81 37.66 M138.35 39.02 C89.77 38.8, 45.04 37.07, 0.22 38.18 M136.55 37.06 C108.93 36.97, 81.56 36.92, -0.49 37.9 M0.07 39.28 C-0.06 29.75, 1.29 18.36, 1.14 -0.47 M0.61 38.28 C0.87 27.17, -0.77 15.81, -0.97 0.52" stroke="transparent" stroke-width="1" fill="none"></path></g><g transform="translate(929.3011363636356 871.8355993845015) rotate(0 22.5 10.5)"><text x="22.5" y="15" font-family="Virgil, Segoe UI Emoji" font-size="17.030719280719268px" fill="#000000" text-anchor="middle" style="white-space: pre;" direction="ltr">probs</text></g><g stroke-linecap="round" transform="translate(872.7083333333333 851.7573318187341) rotate(0 78.54166666666674 57.499999999999886)"><path d="M1.33 -0.55 C47.22 2.14, 96.02 1.74, 156.2 -0.09 M0.56 0.58 C46.5 -2.26, 92.48 -0.48, 157.05 -0.44 M157.61 -0.84 C158.28 27.19, 155.91 58.05, 155.5 113.33 M156.85 0.66 C157.44 33.74, 155.56 65.19, 157.59 114.02 M155.43 113.14 C104.37 113.35, 50.03 115.03, 1.91 116.54 M156.25 114.7 C105.11 116.26, 51.36 115.67, -0.24 115.86 M0.51 115.42 C-1.3 89.77, -0.85 60.57, 1.85 -1.15 M-0.83 115.83 C1.29 72.71, 0.56 31.82, 0.74 -0.06" stroke="#b8c8ff" stroke-width="4" fill="none"></path></g><g transform="translate(870.9166666666665 814.257331818734) rotate(0 102 12.499999999999943)"><text x="102" y="18" font-family="Virgil, Segoe UI Emoji" font-size="20px" fill="#000000" text-anchor="middle" style="white-space: pre;" direction="ltr">Calculated Variables</text></g><g stroke-linecap="round" transform="translate(629.7760963016915 478.21344540386235) rotate(0 77 33.5)"><path d="M0.62 0.63 C46.02 -2.05, 88.03 -0.43, 153.57 0.88 M0.6 -0.99 C51.99 0.35, 103.22 -0.17, 154.16 -0.96 M152.05 0.68 C154.12 15.48, 155.02 30.44, 155.86 67.07 M154.77 0.85 C154.57 17.81, 153.42 35.79, 153.06 67.37 M154.67 67.9 C99.57 66.68, 42.52 68.19, 1.32 66.89 M154.52 67.56 C96.18 65.41, 41 64.87, 0.99 66.65 M1.63 68.51 C0.52 42.33, 2.27 20.1, -1.42 -0.11 M-0.94 67.93 C-0.08 52.96, -1.28 39.48, -0.21 -0.16" stroke="#000000" stroke-width="1" fill="none"></path></g><g transform="translate(661.7760963016915 486.71344540386235) rotate(0 45 25)"><text x="45" y="18" font-family="Virgil, Segoe UI Emoji" font-size="20px" fill="#000000" text-anchor="middle" style="white-space: pre;" direction="ltr">Save to </text><text x="45" y="43" font-family="Virgil, Segoe UI Emoji" font-size="20px" fill="#000000" text-anchor="middle" style="white-space: pre;" direction="ltr">memory</text></g><g stroke-linecap="round"><g transform="translate(609.5833333333335 331.80221821334237) rotate(0 -117.06386324277133 90.35445742118111)"><path d="M-0.28 -0.19 C-39.58 29.87, -196.97 150.89, -235.9 181.11 M1.77 -1.33 C-37.14 28.76, -194.36 151.52, -233.66 182.04" stroke="#efd87a" stroke-width="1" fill="none"></path></g><g transform="translate(609.5833333333335 331.80221821334237) rotate(0 -117.06386324277133 90.35445742118111)"><path d="M-218.04 155.12 C-224.13 165.88, -228.8 171.12, -233.33 183.54 M-218.68 156.51 C-222.57 166.5, -228.41 175.45, -234.53 181.65" stroke="#efd87a" stroke-width="1" fill="none"></path></g><g transform="translate(609.5833333333335 331.80221821334237) rotate(0 -117.06386324277133 90.35445742118111)"><path d="M-205.43 171.31 C-215.29 177.33, -223.63 177.86, -233.33 183.54 M-206.07 172.7 C-214.51 176.82, -224.84 180.01, -234.53 181.65" stroke="#efd87a" stroke-width="1" fill="none"></path></g></g><g transform="translate(19.3407653614496 90.00904690214503) rotate(0 28.5 12.5)"><text x="28.5" y="18" font-family="Virgil, Segoe UI Emoji" font-size="20px" fill="#000000" text-anchor="middle" style="white-space: pre;" direction="ltr">Agent</text></g><g stroke-linecap="round" transform="translate(14.924098694782742 129.17571356881166) rotate(0 179.58333333333337 91.66666666666674)"><path d="M0.53 -0.6 C99.28 -1.05, 199.5 -0.41, 359.07 0.87 M-0.1 -0.19 C131.9 -0.79, 263.51 -0.44, 359.74 0.2 M358.67 -0.18 C361.04 36, 361.12 72.24, 359.47 182.94 M360.04 -0.88 C360.04 65.4, 358.18 132.2, 358.19 182.99 M358.71 184.13 C228.55 183.99, 96.03 184.1, 0.31 184.4 M359.14 183.27 C260.59 182.68, 161.75 182.32, -0.07 183.01 M0.03 182.54 C-2.21 114.75, -0.27 45.51, -0.49 -0.95 M-0.99 183.26 C-2.24 136.19, -0.86 91.65, 0.17 -0.21" stroke="#000000" stroke-width="1" fill="none"></path></g><g stroke-linecap="round" transform="translate(27.632432028116114 184.17571356881177) rotate(0 78.54166666666669 56.666666666666714)"><path d="M-1.23 1.62 C45.96 -0.7, 95.27 -0.05, 156.19 0.27 M-0.5 -0.49 C61.26 1.77, 124.07 0.27, 157.26 0.63 M157.89 -1.07 C155.66 35.86, 156.73 74.06, 159.01 112.8 M157.5 -0.29 C157.84 41.3, 158.58 82.4, 156.64 113.14 M155.82 114.95 C123.75 114.26, 90.16 112.6, -1.08 113.1 M156.91 113.25 C103.77 113.03, 50.06 111.08, -0.75 113.46 M1.39 113.35 C-0.12 76.24, 1.65 34.58, 1.83 -1.55 M-0.01 112.51 C0.91 87.27, 0.17 61.81, 0.93 0.57" stroke="#b8c8ff" stroke-width="4" fill="none"></path></g><g stroke-linecap="round" transform="translate(37.92788657357062 194.5923802354784) rotate(0 68.34090909090907 18.738636363636346)"><path d="M-0.94 -0.12 L135.76 -0.79 L137 38.8 L1.89 35.59" stroke="none" stroke-width="0" fill="#b8c8ff"></path><path d="M0.27 1.91 C47.4 -0.92, 92.93 -0.38, 134.89 1.14 M0.63 0.33 C37.81 -0.35, 75.93 -0.77, 135.94 -0.96 M136.14 1.3 C137.49 10.14, 137.24 20.4, 136.95 37.35 M136.49 -0.81 C136.66 14.73, 135.93 29.84, 137.24 37.78 M136.45 38.34 C82.74 35.09, 27.39 36.56, 1.23 39.47 M136.81 37.93 C84.04 35.7, 32.34 36.46, -0.13 38.47 M-1.55 36.05 C-0.77 24.05, 0.09 7.68, 0.82 -0.35 M0.57 37.45 C0.14 28.08, 0.05 18.41, -0.19 0.78" stroke="transparent" stroke-width="1" fill="none"></path></g><g transform="translate(82.81993202811617 201.74261749821568) rotate(0 24 10.5)"><text x="24" y="15" font-family="Virgil, Segoe UI Emoji" font-size="17.030719280719268px" fill="#000000" text-anchor="middle" style="white-space: pre;" direction="ltr">actor</text></g><g stroke-linecap="round" transform="translate(37.75743202811611 248.4673802354784) rotate(0 68.34090909090907 18.738636363636346)"><path d="M-0.92 -0.79 L137 1.33 L138.57 35.59 L1.73 37.74" stroke="none" stroke-width="0" fill="#b8c8ff"></path><path d="M0.44 -1.53 C33.91 -2.29, 68.02 -0.16, 136.21 -1.86 M0.04 -0.11 C43.78 -0.99, 86.02 -1.42, 136.48 -0.76 M137.78 -0.35 C137.42 14.29, 136.85 29.59, 138.43 36.81 M136.79 0.21 C135.98 10.39, 137.17 19.48, 137.67 36.95 M137.22 35.83 C102.74 37.89, 70.71 40.06, 1.68 35.57 M136.56 36.72 C106.6 38.1, 75 39.09, 0.76 37.18 M-0.88 38.12 C0.27 21.15, 1.11 7.78, -0.66 0.49 M0.24 38.08 C-0.07 23.71, -0.41 8.84, -0.47 -0.06" stroke="transparent" stroke-width="1" fill="none"></path></g><g transform="translate(84.64947748266155 255.61761749821568) rotate(0 22 10.5)"><text x="22" y="15" font-family="Virgil, Segoe UI Emoji" font-size="17.030719280719268px" fill="#000000" text-anchor="middle" style="white-space: pre;" direction="ltr">critic</text></g><g transform="translate(27.174098694782856 140.00904690214514) rotate(0 39 12.5)"><text x="39" y="18" font-family="Virgil, Segoe UI Emoji" font-size="20px" fill="#000000" text-anchor="middle" style="white-space: pre;" direction="ltr">Modules</text></g><g transform="translate(199.67409869478286 140.00904690214514) rotate(0 41.5 12.5)"><text x="41.5" y="18" font-family="Virgil, Segoe UI Emoji" font-size="20px" fill="#000000" text-anchor="middle" style="white-space: pre;" direction="ltr">Methods</text></g><g stroke-linecap="round" transform="translate(205.96576536144948 185.84238023547852) rotate(0 76.04166666666669 55.00000000000003)"><path d="M-1.07 0.13 C54.06 0.45, 104.89 1.64, 151.34 1.37 M0.72 0.84 C42.02 -0.89, 85.11 0.36, 151.75 0.57 M151.08 0.77 C154.38 29.03, 153.44 57.19, 152.48 111.71 M151.39 -0.58 C151.71 33.35, 152.93 66.78, 151.46 109.47 M151.41 111.19 C95.51 110.41, 38.77 109.06, 1.44 110.51 M152.15 110.1 C92.19 111.79, 34.28 111.97, 0.61 109.43 M0.58 109.71 C0.58 84.95, 0.35 61.56, -1.91 0.89 M0.81 110 C0.77 75.78, -0.42 43.25, -0.48 -0.46" stroke="#b8c8ff" stroke-width="4" fill="none"></path></g><g stroke-linecap="round" transform="translate(214.59455324023725 196.25904690214514) rotate(0 68.34090909090912 18.738636363636346)"><path d="M1.55 0.54 L137.92 -1.07 L135.07 37.57 L-0.05 35.74" stroke="none" stroke-width="0" fill="#b8c8ff"></path><path d="M0.13 0.68 C41.33 -1.14, 84.51 -0.01, 138.05 -0.4 M0.84 -0.53 C50.94 -0.98, 103.61 -1.31, 137.25 -0.41 M137.46 1.62 C137.58 14.24, 137.25 27.53, 138.39 37.52 M136.1 -0.69 C136.45 12.85, 136.65 24.01, 136.15 38.25 M137.87 38.23 C90.94 38.37, 42.71 38.46, 0.51 39.25 M136.79 36.67 C83.57 37.93, 30.24 38.18, -0.57 36.76 M-0.29 37.98 C-0.08 26.79, 1.65 13.66, 0.89 0.07 M0 38.31 C-0.95 25.66, -0.12 14.07, -0.46 -0.19" stroke="transparent" stroke-width="1" fill="none"></path></g><g transform="translate(222.98659869478274 203.40928416488242) rotate(0 60.5 10.5)"><text x="60.5" y="15" font-family="Virgil, Segoe UI Emoji" font-size="17.030719280719268px" fill="#000000" text-anchor="middle" style="white-space: pre;" direction="ltr">agent.rollout()</text></g><g stroke-linecap="round" transform="translate(214.42409869478274 250.13404690214514) rotate(0 68.34090909090912 18.738636363636346)"><path d="M1.23 -1.07 L135.07 0.09 L136.64 35.74 L1.85 36.76" stroke="none" stroke-width="0" fill="#b8c8ff"></path><path d="M-0.65 -1.87 C34.23 -1.21, 68.74 -0.87, 138.21 0.55 M-0.47 0 C51.55 0.39, 102.13 0.32, 137.3 0.96 M137.22 0.67 C137.03 9.76, 138.54 18.77, 137.26 35.61 M136.8 0.53 C136.79 8.01, 135.93 18.05, 137.11 36.99 M137.83 38.83 C100.05 39.43, 64.32 39.76, 1.83 39.32 M137.07 37.83 C95.3 36.97, 52.21 35.65, -0.08 37.85 M0.07 37.74 C1.84 23.23, 0.95 12.88, 0.12 0.45 M-0.86 37.12 C-0.03 22.72, -0.46 8.72, 0.77 0.27" stroke="transparent" stroke-width="1" fill="none"></path></g><g transform="translate(229.81614414932824 257.2842841648824) rotate(0 53.5 10.5)"><text x="53.5" y="15" font-family="Virgil, Segoe UI Emoji" font-size="17.030719280719268px" fill="#000000" text-anchor="middle" style="white-space: pre;" direction="ltr">agent.learn()</text></g><g stroke-linecap="round"><g transform="translate(359.59476722274303 213.01019029108602) rotate(0 55.49665347213676 -11.181145631923698)"><path d="M-0.47 0.54 C17.83 -2.8, 91.05 -17.54, 109.36 -21.14 M1.48 -0.22 C20.17 -3.81, 93.09 -19.11, 111.46 -22.9" stroke="#b8c8ff" stroke-width="1" fill="none"></path></g><g transform="translate(359.59476722274303 213.01019029108602) rotate(0 55.49665347213676 -11.181145631923698)"><path d="M86.86 -9.06 C93.94 -13.05, 100.83 -13.81, 112.2 -24.56 M86.51 -6.74 C93.04 -11.53, 101.06 -16.89, 110.68 -23.36" stroke="#b8c8ff" stroke-width="1" fill="none"></path></g><g transform="translate(359.59476722274303 213.01019029108602) rotate(0 55.49665347213676 -11.181145631923698)"><path d="M82.68 -29.15 C90.67 -27.84, 98.66 -23.32, 112.2 -24.56 M82.33 -26.83 C90.28 -25.35, 99.61 -24.43, 110.68 -23.36" stroke="#b8c8ff" stroke-width="1" fill="none"></path></g></g><g stroke-linecap="round" transform="translate(624.25 843.2573318187339) rotate(0 77 33.5)"><path d="M1.09 1.02 C46.7 -2.12, 95.8 0.09, 154.45 -1.48 M-0.11 0.82 C46.37 -1.02, 94.7 -1.3, 154.05 0.11 M154.78 0.13 C152.34 19.04, 152.96 35.88, 155.88 67.46 M153.13 -0.69 C153.47 15.24, 154.79 31.27, 154.2 66.26 M152.23 65.67 C111.82 68.76, 71.59 67.66, 1.37 68.93 M153.99 66.57 C96.7 67.49, 41.5 66.76, -0.44 67.51 M-0.69 68.12 C-2.42 44.22, 1.47 24.44, 1.82 0.06 M-0.26 66.33 C0.47 42.04, -0.35 16.01, -0.75 0.7" stroke="#000000" stroke-width="1" fill="none"></path></g><g transform="translate(637.75 851.7573318187339) rotate(0 63.5 25)"><text x="63.5" y="18" font-family="Virgil, Segoe UI Emoji" font-size="20px" fill="#000000" text-anchor="middle" style="white-space: pre;" direction="ltr">Sample from </text><text x="63.5" y="43" font-family="Virgil, Segoe UI Emoji" font-size="20px" fill="#000000" text-anchor="middle" style="white-space: pre;" direction="ltr">memory</text></g><g stroke-linecap="round" transform="translate(554.5392538975507 1052.981812145385) rotate(0 245.04407943578303 170.77437628440737)"><path d="M0.08 -0.07 C98.1 -0.45, 196.56 -1.04, 489.52 0.39 M490.11 -0.25 C490.7 132.08, 491.75 262.26, 488.8 342.04 M489.79 340.77 C378.86 342.02, 268.13 343.46, 0.39 342.09 M0.14 341.42 C-0.86 245.2, -2.02 148.02, 0.99 0.48" stroke="#000000" stroke-width="1.5" fill="none" stroke-dasharray="1.5 7"></path></g><g transform="translate(559.416666666667 1015.8497594356598) rotate(0 63.5 13)"><text x="63.5" y="18" font-family="Virgil, Segoe UI Emoji" font-size="20.11878247958426px" fill="#000000" text-anchor="middle" style="white-space: pre;" direction="ltr">Update step</text></g><g stroke-linecap="round"><g transform="translate(354.9465299577296 294.039533312575) rotate(0 68.26067395247787 214.4189200072184)"><path d="M1.09 0.34 C23.84 71.61, 114.04 357.04, 136.32 428.42 M0.2 -0.53 C22.87 70.78, 112.95 357.7, 135.79 429.37" stroke="#b8c8ff" stroke-width="1" fill="none"></path></g><g transform="translate(354.9465299577296 294.039533312575) rotate(0 68.26067395247787 214.4189200072184)"><path d="M118.07 406.89 C121 410.92, 126.56 420.5, 137.77 430.2 M116.58 406.11 C121.63 411.31, 127.66 417.98, 135.27 430.2" stroke="#b8c8ff" stroke-width="1" fill="none"></path></g><g transform="translate(354.9465299577296 294.039533312575) rotate(0 68.26067395247787 214.4189200072184)"><path d="M137.64 400.71 C135.03 406.68, 135 418.02, 137.77 430.2 M136.15 399.92 C135.93 406.73, 136.76 415.05, 135.27 430.2" stroke="#b8c8ff" stroke-width="1" fill="none"></path></g></g><g stroke-linecap="round" transform="translate(884.575757575758 918.0186954550976) rotate(0 68.34090909090912 18.738636363636374)"><path d="M-1.74 -1.98 L138.21 -1.79 L135.84 35.48 L-0.68 37.06" stroke="none" stroke-width="0" fill="#b8c8ff"></path><path d="M-1.59 1.2 C48.75 -0.84, 96.48 1.64, 135.15 -0.84 M0.91 0.61 C35.88 -0.68, 72.78 -0.95, 136.12 -0.56 M135.16 0.85 C135.82 14.93, 136.51 30.44, 135.12 37.65 M136.96 -0.01 C135.87 10.8, 136.61 21.52, 137.12 37.17 M138.11 37.88 C96.61 36.65, 53.14 37.92, 0.38 39.19 M137.63 37.53 C82.63 38.08, 30.24 38.23, -0.34 36.98 M0.91 36.89 C1.76 22.09, 1.08 7.3, 1.11 -0.17 M0.28 38.04 C-0.92 27.5, -1.07 15.39, 0.25 0.76" stroke="transparent" stroke-width="1" fill="none"></path></g><g transform="translate(927.6344696969695 926.8355993845015) rotate(0 27.5 10.5)"><text x="27.5" y="15" font-family="Virgil, Segoe UI Emoji" font-size="17.030719280719268px" fill="#000000" text-anchor="middle" style="white-space: pre;" direction="ltr">values</text></g><g stroke-linecap="round"><g transform="translate(372.31157646488987 746.4028743975521) rotate(0 124.24398676106125 64.44103946753114)"><path d="M-0.01 0.75 C41.53 22.04, 208.51 106.58, 249.96 127.83 M-1.47 0.09 C39.9 21.49, 207.82 107.26, 249.33 128.79" stroke="#efd87a" stroke-width="1" fill="none"></path></g><g transform="translate(372.31157646488987 746.4028743975521) rotate(0 124.24398676106125 64.44103946753114)"><path d="M220.81 126.06 C228.53 125.32, 240.05 129.29, 247.41 129.46 M220.5 125.14 C230.18 126.83, 241.53 128.25, 249.03 128.52" stroke="#efd87a" stroke-width="1" fill="none"></path></g><g transform="translate(372.31157646488987 746.4028743975521) rotate(0 124.24398676106125 64.44103946753114)"><path d="M230.2 107.81 C234.52 113.69, 242.64 124.27, 247.41 129.46 M229.89 106.89 C236.25 115.14, 244.2 123.17, 249.03 128.52" stroke="#efd87a" stroke-width="1" fill="none"></path></g></g><g stroke-linecap="round"><g transform="translate(701.25 921.7573318187336) rotate(0 -6.5738137072696645 80.85071304510654)"><path d="M-0.4 -1.09 C-2.65 25.65, -11.87 134.39, -14.21 161.4 M1.59 0.95 C-0.69 27.79, -11.99 135.97, -14.74 162.79" stroke="#efd87a" stroke-width="1" fill="none"></path></g><g transform="translate(701.25 921.7573318187336) rotate(0 -6.5738137072696645 80.85071304510654)"><path d="M-23.87 135.01 C-20.5 141.7, -19.46 149.03, -14.65 161.6 M-22.69 132.96 C-20.93 141.52, -19.41 148.26, -14.58 162.67" stroke="#efd87a" stroke-width="1" fill="none"></path></g><g transform="translate(701.25 921.7573318187336) rotate(0 -6.5738137072696645 80.85071304510654)"><path d="M-3.45 137.12 C-5.05 143.23, -8.96 150.05, -14.65 161.6 M-2.28 135.06 C-5.41 143.12, -8.78 149.36, -14.58 162.67" stroke="#efd87a" stroke-width="1" fill="none"></path></g></g><g stroke-linecap="round"><g transform="translate(736.1571470406034 920.9066187736274) rotate(0 92.06127474640186 75.99995023067424)"><path d="M-1.02 -1.12 C29.55 24.23, 152.08 126.2, 182.74 151.61 M0.64 0.9 C31.68 26.49, 154.93 127.86, 185.14 153.12" stroke="#efd87a" stroke-width="1" fill="none"></path></g><g transform="translate(736.1571470406034 920.9066187736274) rotate(0 92.06127474640186 75.99995023067424)"><path d="M155.02 142.06 C163.54 145.03, 169.88 149.07, 186.41 154.77 M157.72 142.38 C167.22 146.8, 177.77 150.79, 184.38 153.05" stroke="#efd87a" stroke-width="1" fill="none"></path></g><g transform="translate(736.1571470406034 920.9066187736274) rotate(0 92.06127474640186 75.99995023067424)"><path d="M168.11 126.25 C173.43 132.91, 176.62 140.74, 186.41 154.77 M170.81 126.57 C175.46 137.1, 181.01 147.13, 184.38 153.05" stroke="#efd87a" stroke-width="1" fill="none"></path></g></g><g stroke-linecap="round"><g transform="translate(893.5190010961237 872.8625761454399) rotate(0 -98.23752789714365 108.01896824473522)"><path d="M0.18 0.99 C-32.44 36.79, -162.85 178.65, -195.47 214.36 M-1.18 0.47 C-34.02 36.45, -164.1 179.53, -196.66 215.57" stroke="#b8c8ff" stroke-width="1" fill="none"></path></g><g transform="translate(893.5190010961237 872.8625761454399) rotate(0 -98.23752789714365 108.01896824473522)"><path d="M-183.67 187.02 C-190.11 195.91, -192.25 206.15, -197.98 215.72 M-184.82 187.31 C-188.83 196.02, -192.61 205.26, -196.64 216.43" stroke="#b8c8ff" stroke-width="1" fill="none"></path></g><g transform="translate(893.5190010961237 872.8625761454399) rotate(0 -98.23752789714365 108.01896824473522)"><path d="M-168.46 200.8 C-179.74 205.29, -186.76 211.11, -197.98 215.72 M-169.61 201.1 C-178.32 205.4, -186.79 210.39, -196.64 216.43" stroke="#b8c8ff" stroke-width="1" fill="none"></path></g></g><g stroke-linecap="round"><g transform="translate(960.1856677627907 952.8625761454399) rotate(0 -18.2531098247631 58.36299422645334)"><path d="M0.32 -0.44 C-5.68 19.09, -29.84 97.27, -36.15 116.83 M-0.97 -1.72 C-7.08 18.07, -31.14 98.43, -36.83 118.45" stroke="#b8c8ff" stroke-width="1" fill="none"></path></g><g transform="translate(960.1856677627907 952.8625761454399) rotate(0 -18.2531098247631 58.36299422645334)"><path d="M-39.48 89.37 C-38.02 95.77, -37.31 104.09, -37.96 120.15 M-39.6 89.06 C-38.45 97.71, -38.22 106.29, -36.9 117.92" stroke="#b8c8ff" stroke-width="1" fill="none"></path></g><g transform="translate(960.1856677627907 952.8625761454399) rotate(0 -18.2531098247631 58.36299422645334)"><path d="M-19.79 95.14 C-24.04 99.91, -29.07 106.55, -37.96 120.15 M-19.91 94.83 C-24.94 101.77, -30.85 108.54, -36.9 117.92" stroke="#b8c8ff" stroke-width="1" fill="none"></path></g></g><g stroke-linecap="round"><g transform="translate(897.8208612304772 872.9050302406648) rotate(0 -44.253802432253224 95.29715725575272)"><path d="M-0.04 0.98 C-11.22 14.35, -53.06 49.46, -67.61 80.74 C-82.16 112.02, -83.99 170.73, -87.34 188.66 M-1.52 0.45 C-12.75 13.39, -53.73 47.11, -68.22 78.73 C-82.71 110.35, -85.16 171.71, -88.46 190.15" stroke="#b8c8ff" stroke-width="1" fill="none"></path></g><g transform="translate(897.8208612304772 872.9050302406648) rotate(0 -44.253802432253224 95.29715725575272)"><path d="M-93.72 162 C-93.13 167.19, -91.21 173.91, -88.55 190.71 M-95.58 161.28 C-93.12 168.97, -92.41 176.43, -88.11 190.01" stroke="#b8c8ff" stroke-width="1" fill="none"></path></g><g transform="translate(897.8208612304772 872.9050302406648) rotate(0 -44.253802432253224 95.29715725575272)"><path d="M-73.34 164.4 C-77.91 168.98, -81.14 175.09, -88.55 190.71 M-75.2 163.68 C-77.97 170.81, -82.52 177.64, -88.11 190.01" stroke="#b8c8ff" stroke-width="1" fill="none"></path></g></g><g stroke-linecap="round"><g transform="translate(803.820336954213 1601.0510440743492) rotate(0 0.14991479628213256 20.076360129912928)"><path d="M-0.75 0.08 C-0.59 6.82, 0.45 32.83, 0.4 39.65 M1.05 -0.93 C1.15 6.07, -0.36 34.39, -0.32 41.08" stroke="#000000" stroke-width="1" fill="none"></path></g><g transform="translate(803.820336954213 1601.0510440743492) rotate(0 0.14991479628213256 20.076360129912928)"><path d="M-6.49 22.93 C-5.49 25.28, -1.7 32.02, 0.15 40.6 M-7.34 22.11 C-4.46 27, -4.45 31.57, -0.41 41.37" stroke="#000000" stroke-width="1" fill="none"></path></g><g transform="translate(803.820336954213 1601.0510440743492) rotate(0 0.14991479628213256 20.076360129912928)"><path d="M7.13 23.3 C4.75 25.48, 5.14 32.12, 0.15 40.6 M6.28 22.48 C5.87 27.35, 2.6 31.83, -0.41 41.37" stroke="#000000" stroke-width="1" fill="none"></path></g></g><g stroke-linecap="round"><g transform="translate(898.7461172977644 1722.2475032148536) rotate(0 94.30675100161898 -724.5907571067555)"><path d="M-7.72 -0.01 C32.84 0.58, 185.27 12.21, 235.7 3.35 C286.13 -5.51, 285.28 10.03, 294.86 -53.16 C304.43 -116.35, 294.75 -176.6, 293.15 -375.79 C291.56 -574.98, 287.78 -1074.05, 285.28 -1248.3 C282.78 -1422.55, 283.77 -1387.43, 278.15 -1421.3 C272.53 -1455.17, 278.1 -1446, 251.56 -1451.51 C225.02 -1457.02, 179.23 -1453.77, 118.9 -1454.36 C58.57 -1454.95, -72.23 -1454.64, -110.42 -1455.05 M-8.92 -1.06 C31.4 -0.84, 184 9.8, 234.58 1.33 C285.16 -7.14, 284.77 10.87, 294.54 -51.89 C304.31 -114.66, 294.86 -175.94, 293.18 -375.26 C291.49 -574.58, 287.26 -1073.26, 284.43 -1247.82 C281.6 -1422.37, 281.63 -1388.46, 276.18 -1422.61 C270.74 -1456.76, 277.6 -1447.43, 251.75 -1452.73 C225.9 -1458.03, 181.21 -1453.88, 121.08 -1454.4 C60.96 -1454.92, -70.49 -1455.3, -109 -1455.84" stroke="#000000" stroke-width="1" fill="none"></path></g><g transform="translate(898.7461172977644 1722.2475032148536) rotate(0 94.30675100161898 -724.5907571067555)"><path d="M-80.74 -1466.41 C-90.17 -1460.86, -100.43 -1459.53, -110.83 -1453.89 M-81.45 -1465.68 C-90.29 -1462.36, -99.37 -1458.74, -109.75 -1456.4" stroke="#000000" stroke-width="1" fill="none"></path></g><g transform="translate(898.7461172977644 1722.2475032148536) rotate(0 94.30675100161898 -724.5907571067555)"><path d="M-80.91 -1445.89 C-90.24 -1447.43, -100.45 -1453.19, -110.83 -1453.89 M-81.62 -1445.16 C-90.49 -1448.29, -99.52 -1451.13, -109.75 -1456.4" stroke="#000000" stroke-width="1" fill="none"></path></g></g><g stroke-linecap="round" transform="translate(627.5380010635963 230.47535016576734) rotate(0 77 30)"><path d="M0.26 -0.81 C38.15 1.15, 76.49 1.13, 154.12 0.84 M-0.2 0.46 C55.55 0.34, 110.1 -0.25, 153.58 -0.2 M155.78 0.27 C153.94 19.31, 152.68 41.1, 153.97 60.19 M153.05 0.33 C153.29 14.46, 153.83 28.7, 153.09 59.98 M153.82 61.26 C95.59 59, 38.23 62.33, -1.79 61.66 M153.71 59.42 C96.38 60.13, 38.89 60.51, -0.11 60.95 M-0.1 59.38 C0.6 44, -2.03 32.38, 0.92 1.75 M-0.2 60.77 C0.04 44.07, -0.63 30.66, -0.42 0.48" stroke="#000000" stroke-width="1" fill="none"></path></g><g transform="translate(640.5380010635963 247.97535016576734) rotate(0 64 12.5)"><text x="64" y="18" font-family="Virgil, Segoe UI Emoji" font-size="20px" fill="#000000" text-anchor="middle" style="white-space: pre;" direction="ltr">Clear memory</text></g><g stroke-linecap="round"><g transform="translate(784.599246145842 879.5985554723471) rotate(0 39.326082300387384 -20.504639530432314)"><path d="M0.84 1.18 C13.78 -5.77, 65.81 -35.14, 78.83 -42.19 M-0.18 0.76 C12.52 -5.99, 64.86 -33.59, 77.95 -40.91" stroke="#efd87a" stroke-width="1" fill="none"></path></g><g transform="translate(784.599246145842 879.5985554723471) rotate(0 39.326082300387384 -20.504639530432314)"><path d="M60.01 -18.26 C65.21 -27.02, 74.87 -36.25, 78.12 -39.55 M58.89 -18.29 C65.42 -26.93, 72.08 -33.39, 78.51 -41.44" stroke="#efd87a" stroke-width="1" fill="none"></path></g><g transform="translate(784.599246145842 879.5985554723471) rotate(0 39.326082300387384 -20.504639530432314)"><path d="M50.25 -36.31 C59.24 -37.99, 72.77 -40.06, 78.12 -39.55 M49.13 -36.34 C59.17 -38.5, 69.29 -38.57, 78.51 -41.44" stroke="#efd87a" stroke-width="1" fill="none"></path></g></g></svg>